<svg width="34" height="34" viewBox="0 0 34 34" fill="none" xmlns="http://www.w3.org/2000/svg">
<path fill-rule="evenodd" clip-rule="evenodd" d="M6.15566 21.9095C6.57382 22.5707 6.37672 23.4458 5.71543 23.864C4.51108 24.6256 4.24996 25.2587 4.24996 25.6002C4.24996 25.8442 4.37004 26.2267 4.91076 26.729C5.4534 27.2331 6.31601 27.7523 7.50069 28.2177C9.86145 29.1453 13.2194 29.7499 17 29.7499C20.7805 29.7499 24.1385 29.1453 26.4993 28.2177C27.6839 27.7523 28.5465 27.2331 29.0891 26.729C29.6298 26.2267 29.75 25.8442 29.75 25.6002C29.75 25.2587 29.4889 24.6256 28.2844 23.864C27.6233 23.4458 27.4261 22.5707 27.8443 21.9095C28.2625 21.2482 29.1375 21.051 29.7988 21.4692C31.2886 22.4113 32.5833 23.7886 32.5833 25.6002C32.5833 26.8935 31.9105 27.9753 31.0176 28.8049C30.1264 29.6326 28.9144 30.3129 27.5354 30.8548C24.7688 31.9418 21.0434 32.5833 17 32.5833C12.9565 32.5833 9.2311 31.9418 6.46454 30.8548C5.08555 30.3129 3.87351 29.6326 2.9824 28.8049C2.08937 27.9753 1.41663 26.8935 1.41663 25.6002C1.41663 23.7886 2.71139 22.4113 4.20115 21.4692C4.86243 21.051 5.7375 21.2482 6.15566 21.9095Z" fill="white"/>
<path d="M11.2113 11.2062C11.9236 10.8824 12.2385 10.0425 11.9147 9.33022C11.5908 8.61797 10.751 8.30307 10.0387 8.62688C9.27771 8.97284 8.57593 9.41172 8.04519 9.96391C7.50786 10.523 7.08368 11.2704 7.08368 12.1725L7.0835 18.4166C7.12175 18.4704 7.22173 18.5772 7.47081 18.7265C7.92164 18.9965 8.64201 19.2624 9.61756 19.4908C11.551 19.9436 14.2121 20.1875 16.9999 20.1875C19.7775 20.1875 22.4353 19.9101 24.3681 19.4402C25.343 19.2032 26.0696 18.9324 26.5268 18.6631C26.7812 18.5133 26.881 18.4093 26.9167 18.3631V12.1725C26.9167 11.2704 26.4921 10.523 25.9548 9.96391C25.4241 9.41172 24.7223 8.97284 23.9614 8.62688C23.2491 8.30307 22.4091 8.61797 22.0854 9.33022C21.7616 10.0425 22.0765 10.8824 22.7886 11.2062C23.3502 11.4615 23.7109 11.7181 23.9121 11.9273C24.0445 12.0652 24.076 12.1462 24.0826 12.1722C24.0753 12.2015 24.0364 12.3022 23.857 12.4723C23.6003 12.7159 23.1529 13.0006 22.4828 13.2695C21.1506 13.8041 19.2127 14.1665 17 14.1665C14.7873 14.1665 12.8495 13.8041 11.5172 13.2695C10.8471 13.0006 10.3998 12.7159 10.143 12.4723C9.96362 12.3022 9.92476 12.2015 9.91738 12.1722C9.92397 12.1462 9.95542 12.0652 10.0879 11.9273C10.2891 11.7181 10.6498 11.4615 11.2113 11.2062Z" fill="white"/>
<path d="M26.9167 20.842C26.319 21.1037 25.621 21.3224 24.8701 21.505C22.7283 22.0257 19.8936 22.3124 16.9999 22.3124C14.1164 22.3124 11.2797 22.0624 9.13312 21.5597C8.3844 21.3845 7.68482 21.1706 7.08346 20.9081L7.08337 24.0831C7.08337 25.0945 7.69955 25.8324 8.29114 26.2986C8.89869 26.7775 9.69004 27.1466 10.5416 27.4305C12.2596 28.0031 14.543 28.3331 17 28.3331C19.4571 28.3331 21.7405 28.0031 23.4585 27.4305C24.31 27.1466 25.1014 26.7775 25.709 26.2986C26.3006 25.8324 26.9167 25.0945 26.9167 24.0831V20.842Z" fill="white"/>
<path fill-rule="evenodd" clip-rule="evenodd" d="M20.8641 2.57556C21.0064 3.14484 20.6602 3.72171 20.091 3.86403C19.186 4.09027 18.6774 4.49127 18.3958 4.86159C19.8579 5.42287 20.8958 6.84019 20.8958 8.49991C20.8958 10.6515 19.1516 12.3957 17 12.3957C14.8483 12.3957 13.1041 10.6515 13.1041 8.49991C13.1041 6.6571 14.3837 5.11312 16.1028 4.70791C16.4683 3.60326 17.484 2.32536 19.5756 1.80248C20.1448 1.66016 20.7217 2.00628 20.8641 2.57556Z" fill="white"/>
</svg>
