<svg width="366" height="366" viewBox="0 0 366 366" fill="none" xmlns="http://www.w3.org/2000/svg">
<path d="M366 279.917H0V280.1H366V279.917Z" fill="#EBEBEB"/>
<path d="M100.767 284.902H76.5233V285.085H100.767V284.902Z" fill="#EBEBEB"/>
<path d="M155.104 291.607H125.275V291.79H155.104V291.607Z" fill="#EBEBEB"/>
<path d="M75.7913 289.316H38.4008V289.499H75.7913V289.316Z" fill="#EBEBEB"/>
<path d="M329.327 286.132H261.148V286.315H329.327V286.132Z" fill="#EBEBEB"/>
<path d="M254.634 286.132H250V286.315H254.634V286.132Z" fill="#EBEBEB"/>
<path d="M233.83 289.22H202.918V289.403H233.83V289.22Z" fill="#EBEBEB"/>
<path d="M173.484 247.27H32.1421C31.0349 247.268 29.9736 246.826 29.1913 246.043C28.4091 245.259 27.9697 244.197 27.9697 243.09V44.4031C27.9794 43.3022 28.423 42.2496 29.2042 41.4738C29.9854 40.6981 31.0412 40.2619 32.1421 40.26H173.484C174.593 40.26 175.656 40.7004 176.44 41.4842C177.223 42.2681 177.664 43.3312 177.664 44.4397V243.09C177.664 244.198 177.223 245.262 176.44 246.045C175.656 246.829 174.593 247.27 173.484 247.27ZM32.1421 40.4064C31.0834 40.4083 30.0687 40.8303 29.3208 41.5796C28.5728 42.3289 28.1527 43.3444 28.1527 44.4031V243.09C28.1527 244.149 28.5728 245.164 29.3208 245.913C30.0687 246.663 31.0834 247.085 32.1421 247.087H173.484C174.543 247.083 175.557 246.66 176.306 245.912C177.055 245.163 177.477 244.149 177.481 243.09V44.4031C177.477 43.3443 177.055 42.33 176.306 41.5813C175.557 40.8326 174.543 40.4103 173.484 40.4064H32.1421Z" fill="#EBEBEB"/>
<path d="M331.823 247.27H190.474C189.366 247.266 188.305 246.824 187.522 246.041C186.739 245.258 186.298 244.197 186.294 243.09V44.4031C186.305 43.3016 186.751 42.2489 187.533 41.4734C188.316 40.6978 189.372 40.2619 190.474 40.26H331.823C332.923 40.2638 333.976 40.7009 334.756 41.4764C335.536 42.2519 335.978 43.3035 335.988 44.4031V243.09C335.989 243.638 335.882 244.181 335.673 244.687C335.464 245.194 335.158 245.654 334.771 246.042C334.384 246.431 333.925 246.739 333.419 246.949C332.913 247.16 332.371 247.269 331.823 247.27ZM190.474 40.4064C189.415 40.4103 188.401 40.8326 187.652 41.5813C186.903 42.33 186.481 43.3443 186.477 44.4031V243.09C186.481 244.149 186.903 245.163 187.652 245.912C188.401 246.66 189.415 247.083 190.474 247.087H331.823C332.882 247.083 333.896 246.66 334.645 245.912C335.393 245.163 335.816 244.149 335.82 243.09V44.4031C335.816 43.3443 335.393 42.33 334.645 41.5813C333.896 40.8326 332.882 40.4103 331.823 40.4064H190.474Z" fill="#EBEBEB"/>
<path d="M51.7305 125.245H115.239C115.239 125.245 111.82 117.296 100.401 119.77C100.401 119.77 98.0002 110.73 89.2894 111.981C89.2894 111.981 82.0792 104.164 71.5604 107.194C61.0415 110.225 61.9492 119.77 61.9492 119.77C61.9492 119.77 54.168 117.735 51.7305 125.245Z" fill="#FAFAFA"/>
<path d="M221.715 76.8161H158.214C158.214 76.8161 161.626 68.8593 173.045 71.3334C173.045 71.3334 175.446 62.2932 184.164 63.545C184.164 63.545 191.374 55.7345 201.886 58.765C212.397 61.7955 211.504 71.3334 211.504 71.3334C211.504 71.3334 219.315 69.3058 221.715 76.8161Z" fill="#FAFAFA"/>
<path d="M268.549 74.7446H317.132C317.132 74.7446 315.272 68.0761 308.245 70.2721C308.245 70.2721 309.709 61.2977 304.527 60.2583C299.344 59.2189 297.697 66.0484 297.697 66.0484C296.511 64.7044 294.973 63.7181 293.257 63.2008C291.541 62.6835 289.715 62.6557 287.983 63.1204C286.281 63.5637 284.73 64.4578 283.493 65.7087C282.256 66.9596 281.38 68.5209 280.956 70.2281C280.956 70.2281 272.304 65.2725 268.549 74.7446Z" fill="#FAFAFA"/>
<path d="M92.7444 162.628H33.6427V279.726H92.7444V162.628Z" fill="#E6E6E6"/>
<path d="M81.9986 162.628H33.6427V279.726H81.9986V162.628Z" fill="#F0F0F0"/>
<path d="M93.4398 162.628H32.369V164.539H93.4398V162.628Z" fill="#E0E0E0"/>
<path d="M93.4398 158.807H32.369V160.718H93.4398V158.807Z" fill="#E0E0E0"/>
<path d="M92.1588 160.718H33.6427V162.629H92.1588V160.718Z" fill="#F0F0F0"/>
<path d="M47.3165 169.517H38.2324V178.74H47.3165V169.517Z" fill="#E6E6E6"/>
<path d="M47.3092 169.517H39.0303V178.74H47.3092V169.517Z" fill="#F5F5F5"/>
<path d="M61.0708 169.517H51.9867V178.74H61.0708V169.517Z" fill="#E6E6E6"/>
<path d="M61.0635 169.517H52.7845V178.74H61.0635V169.517Z" fill="#F5F5F5"/>
<path d="M74.8251 169.517H65.741V178.74H74.8251V169.517Z" fill="#E6E6E6"/>
<path d="M74.8177 169.517H66.5388V178.74H74.8177V169.517Z" fill="#F5F5F5"/>
<path d="M47.3165 183.095H38.2324V192.318H47.3165V183.095Z" fill="#E6E6E6"/>
<path d="M47.3092 183.095H39.0303V192.318H47.3092V183.095Z" fill="#F5F5F5"/>
<path d="M61.0708 183.095H51.9867V192.318H61.0708V183.095Z" fill="#E6E6E6"/>
<path d="M61.0635 183.095H52.7845V192.318H61.0635V183.095Z" fill="#F5F5F5"/>
<path d="M74.8251 183.095H65.741V192.318H74.8251V183.095Z" fill="#E6E6E6"/>
<path d="M74.8177 183.095H66.5388V192.318H74.8177V183.095Z" fill="#F5F5F5"/>
<path d="M47.3165 207.961H38.2324V217.184H47.3165V207.961Z" fill="#E6E6E6"/>
<path d="M47.3092 207.961H39.0303V217.184H47.3092V207.961Z" fill="#F5F5F5"/>
<path d="M61.0708 207.961H51.9867V217.184H61.0708V207.961Z" fill="#E6E6E6"/>
<path d="M61.0635 207.961H52.7845V217.184H61.0635V207.961Z" fill="#F5F5F5"/>
<path d="M74.8251 207.961H65.741V217.184H74.8251V207.961Z" fill="#E6E6E6"/>
<path d="M74.8177 207.961H66.5388V217.184H74.8177V207.961Z" fill="#F5F5F5"/>
<path d="M47.3165 221.54H38.2324V230.763H47.3165V221.54Z" fill="#E6E6E6"/>
<path d="M47.3092 221.54H39.0303V230.763H47.3092V221.54Z" fill="#F5F5F5"/>
<path d="M61.0708 221.54H51.9867V230.763H61.0708V221.54Z" fill="#E6E6E6"/>
<path d="M61.0635 221.54H52.7845V230.763H61.0635V221.54Z" fill="#F5F5F5"/>
<path d="M74.8251 221.54H65.741V230.763H74.8251V221.54Z" fill="#E6E6E6"/>
<path d="M74.8177 221.54H66.5388V230.763H74.8177V221.54Z" fill="#F5F5F5"/>
<path d="M47.3165 249.173H38.2324V258.396H47.3165V249.173Z" fill="#E6E6E6"/>
<path d="M47.3092 249.173H39.0303V258.396H47.3092V249.173Z" fill="#F5F5F5"/>
<path d="M61.0708 249.173H51.9867V258.396H61.0708V249.173Z" fill="#E6E6E6"/>
<path d="M61.0635 249.173H52.7845V258.396H61.0635V249.173Z" fill="#F5F5F5"/>
<path d="M74.8251 249.173H65.741V258.396H74.8251V249.173Z" fill="#E6E6E6"/>
<path d="M74.8177 249.173H66.5388V258.396H74.8177V249.173Z" fill="#F5F5F5"/>
<path d="M47.3165 262.751H38.2324V271.975H47.3165V262.751Z" fill="#E6E6E6"/>
<path d="M47.3092 262.751H39.0303V271.975H47.3092V262.751Z" fill="#F5F5F5"/>
<path d="M61.0708 262.751H51.9867V271.975H61.0708V262.751Z" fill="#E6E6E6"/>
<path d="M61.0635 262.751H52.7845V271.975H61.0635V262.751Z" fill="#F5F5F5"/>
<path d="M74.8251 262.751H65.741V271.975H74.8251V262.751Z" fill="#E6E6E6"/>
<path d="M74.8177 262.751H66.5388V271.975H74.8177V262.751Z" fill="#F5F5F5"/>
<path d="M92.7444 198.804H33.6427V199.66H92.7444V198.804Z" fill="#E0E0E0"/>
<path d="M92.7444 241.304H33.6427V242.16H92.7444V241.304Z" fill="#E0E0E0"/>
<path d="M325.154 138.465H266.763V280.554H325.154V138.465Z" fill="#E0E0E0"/>
<path d="M308.523 138.465H266.763V280.554H308.523V138.465Z" fill="#F0F0F0"/>
<path d="M286.607 150.141H271.067V157.688H286.607V150.141Z" fill="#E6E6E6"/>
<path d="M286.607 150.141H272.099V157.688H286.607V150.141Z" fill="#F5F5F5"/>
<path d="M304.585 150.141H289.045V157.688H304.585V150.141Z" fill="#E6E6E6"/>
<path d="M304.585 150.141H290.077V157.688H304.585V150.141Z" fill="#F5F5F5"/>
<path d="M286.607 164.341H271.067V171.888H286.607V164.341Z" fill="#E6E6E6"/>
<path d="M286.607 164.341H272.099V171.888H286.607V164.341Z" fill="#F5F5F5"/>
<path d="M304.585 164.341H289.045V171.888H304.585V164.341Z" fill="#E6E6E6"/>
<path d="M304.585 164.341H290.077V171.888H304.585V164.341Z" fill="#F5F5F5"/>
<path d="M286.607 182.488H271.067V190.034H286.607V182.488Z" fill="#E6E6E6"/>
<path d="M286.607 182.488H272.099V190.034H286.607V182.488Z" fill="#F5F5F5"/>
<path d="M304.585 182.488H289.045V190.034H304.585V182.488Z" fill="#E6E6E6"/>
<path d="M304.585 182.488H290.077V190.034H304.585V182.488Z" fill="#F5F5F5"/>
<path d="M286.607 192.919H271.067V200.466H286.607V192.919Z" fill="#E6E6E6"/>
<path d="M286.607 192.919H272.099V200.466H286.607V192.919Z" fill="#F5F5F5"/>
<path d="M304.585 192.919H289.045V200.466H304.585V192.919Z" fill="#E6E6E6"/>
<path d="M304.585 192.919H290.077V200.466H304.585V192.919Z" fill="#F5F5F5"/>
<path d="M286.607 210.055H271.067V217.602H286.607V210.055Z" fill="#E6E6E6"/>
<path d="M286.607 210.055H272.099V217.602H286.607V210.055Z" fill="#F5F5F5"/>
<path d="M304.585 210.055H289.045V217.602H304.585V210.055Z" fill="#E6E6E6"/>
<path d="M304.585 210.055H290.077V217.602H304.585V210.055Z" fill="#F5F5F5"/>
<path d="M286.607 220.479H271.067V228.025H286.607V220.479Z" fill="#E6E6E6"/>
<path d="M286.607 220.479H272.099V228.025H286.607V220.479Z" fill="#F5F5F5"/>
<path d="M304.585 220.479H289.045V228.025H304.585V220.479Z" fill="#E6E6E6"/>
<path d="M304.585 220.479H290.077V228.025H304.585V220.479Z" fill="#F5F5F5"/>
<path d="M286.607 239.13H271.067V246.677H286.607V239.13Z" fill="#E6E6E6"/>
<path d="M286.607 239.13H272.099V246.677H286.607V239.13Z" fill="#F5F5F5"/>
<path d="M304.585 239.13H289.045V246.677H304.585V239.13Z" fill="#E6E6E6"/>
<path d="M304.585 239.13H290.077V246.677H304.585V239.13Z" fill="#F5F5F5"/>
<path d="M286.607 252.899H271.067V260.446H286.607V252.899Z" fill="#E6E6E6"/>
<path d="M286.607 252.899H272.099V260.446H286.607V252.899Z" fill="#F5F5F5"/>
<path d="M304.585 252.899H289.045V260.446H304.585V252.899Z" fill="#E6E6E6"/>
<path d="M304.585 252.899H290.077V260.446H304.585V252.899Z" fill="#F5F5F5"/>
<path opacity="0.05" d="M325.154 176.536H266.763V177.832H325.154V176.536Z" fill="black"/>
<path opacity="0.05" d="M325.154 204.609H266.763V205.904H325.154V204.609Z" fill="black"/>
<path opacity="0.05" d="M325.154 232.93H266.763V234.225H325.154V232.93Z" fill="black"/>
<path d="M325.154 134.263H264.01V138.802H325.154V134.263Z" fill="#E0E0E0"/>
<path opacity="0.05" d="M325.154 134.263H311.181V138.802H325.154V134.263Z" fill="black"/>
<path d="M183.6 106.564H117.589V278.131H183.6V106.564Z" fill="#E6E6E6"/>
<path d="M159.173 106.564H93.1543V278.131H159.173V106.564Z" fill="#F0F0F0"/>
<path d="M153.413 118.211H98.9152V126.951H153.413V118.211Z" fill="#E6E6E6"/>
<path d="M153.413 118.211H101.031V126.951H153.413V118.211Z" fill="#F5F5F5"/>
<path d="M153.413 132.924H98.9152V141.664H153.413V132.924Z" fill="#E6E6E6"/>
<path d="M153.413 132.924H101.031V141.664H153.413V132.924Z" fill="#F5F5F5"/>
<path d="M153.413 148.208H98.9152V156.948H153.413V148.208Z" fill="#E6E6E6"/>
<path d="M153.413 148.208H101.031V156.948H153.413V148.208Z" fill="#F5F5F5"/>
<path d="M153.413 163.5H98.9152V172.24H153.413V163.5Z" fill="#E6E6E6"/>
<path d="M153.413 163.5H101.031V172.24H153.413V163.5Z" fill="#F5F5F5"/>
<path d="M153.413 178.784H98.9152V187.524H153.413V178.784Z" fill="#E6E6E6"/>
<path d="M153.413 178.784H101.031V187.524H153.413V178.784Z" fill="#F5F5F5"/>
<path d="M153.413 194.075H98.9152V202.815H153.413V194.075Z" fill="#E6E6E6"/>
<path d="M153.413 194.075H101.031V202.815H153.413V194.075Z" fill="#F5F5F5"/>
<path d="M153.413 210.926H98.9152V219.666H153.413V210.926Z" fill="#E6E6E6"/>
<path d="M153.413 210.926H101.031V219.666H153.413V210.926Z" fill="#F5F5F5"/>
<path d="M153.413 227.769H98.9152V236.509H153.413V227.769Z" fill="#E6E6E6"/>
<path d="M153.413 227.769H101.031V236.509H153.413V227.769Z" fill="#F5F5F5"/>
<path d="M153.413 244.62H98.9152V253.36H153.413V244.62Z" fill="#E6E6E6"/>
<path d="M153.413 244.62H101.031V253.36H153.413V244.62Z" fill="#F5F5F5"/>
<path d="M153.413 261.47H98.9152V270.211H153.413V261.47Z" fill="#E6E6E6"/>
<path d="M153.413 261.47H101.031V270.211H153.413V261.47Z" fill="#F5F5F5"/>
<path d="M185.32 104.837H91.2877V109.024H185.32V104.837Z" fill="#F5F5F5"/>
<path d="M185.32 97.2827H91.2877V101.47H185.32V97.2827Z" fill="#F5F5F5"/>
<path d="M182.195 100.65H93.1543V104.837H182.195V100.65Z" fill="#F0F0F0"/>
<path d="M183.608 118.211H165.212V126.951H183.608V118.211Z" fill="#E0E0E0"/>
<path d="M183.608 132.594H165.212V141.335H183.608V132.594Z" fill="#E0E0E0"/>
<path d="M183.608 146.978H165.212V155.718H183.608V146.978Z" fill="#E0E0E0"/>
<path d="M183.608 163.492H165.212V172.232H183.608V163.492Z" fill="#E0E0E0"/>
<path d="M183.608 178.784H165.212V187.524H183.608V178.784Z" fill="#E0E0E0"/>
<path d="M183.608 194.075H165.212V202.815H183.608V194.075Z" fill="#E0E0E0"/>
<path d="M183.608 210.918H165.212V219.659H183.608V210.918Z" fill="#E0E0E0"/>
<path d="M183.608 227.769H165.212V236.509H183.608V227.769Z" fill="#E0E0E0"/>
<path d="M183.608 244.62H165.212V253.36H183.608V244.62Z" fill="#E0E0E0"/>
<path d="M183.608 261.47H165.212V270.211H183.608V261.47Z" fill="#E0E0E0"/>
<path d="M268.461 166.523H261.2V177.883H268.461V166.523Z" fill="#E0E0E0"/>
<path d="M268.461 185.115H261.2V196.476H268.461V185.115Z" fill="#E0E0E0"/>
<path d="M268.461 203.188H261.2V214.549H268.461V203.188Z" fill="#E0E0E0"/>
<path d="M268.461 222.294H261.2V233.654H268.461V222.294Z" fill="#E0E0E0"/>
<path d="M268.461 240.886H261.2V252.247H268.461V240.886Z" fill="#E0E0E0"/>
<path d="M268.461 155.104H192.047V271.316H268.461V155.104Z" fill="#E6E6E6"/>
<path d="M255.556 155.104H192.055V271.316H255.556V155.104Z" fill="#F0F0F0"/>
<path d="M249.4 166.53H197.764V177.891H249.4V166.53Z" fill="#EBEBEB"/>
<path d="M249.4 185.115H197.764V196.476H249.4V185.115Z" fill="#EBEBEB"/>
<path d="M249.4 203.708H197.764V215.069H249.4V203.708Z" fill="#EBEBEB"/>
<path d="M249.4 222.294H197.764V233.654H249.4V222.294Z" fill="#EBEBEB"/>
<path d="M249.4 240.886H197.764V252.247H249.4V240.886Z" fill="#EBEBEB"/>
<path d="M249.4 166.53H199.668V177.891H249.4V166.53Z" fill="#F5F5F5"/>
<path d="M249.4 185.115H199.668V196.476H249.4V185.115Z" fill="#F5F5F5"/>
<path d="M249.4 203.708H199.668V215.069H249.4V203.708Z" fill="#F5F5F5"/>
<path d="M249.4 222.294H199.668V233.654H249.4V222.294Z" fill="#F5F5F5"/>
<path d="M249.4 240.886H199.668V252.247H249.4V240.886Z" fill="#F5F5F5"/>
<path d="M183 312.974C261.384 312.974 324.927 309.264 324.927 304.688C324.927 300.111 261.384 296.401 183 296.401C104.616 296.401 41.0725 300.111 41.0725 304.688C41.0725 309.264 104.616 312.974 183 312.974Z" fill="#F5F5F5"/>
<path d="M102.282 304.688H99.3544" stroke="#7974DB" stroke-linecap="round" stroke-linejoin="round"/>
<path d="M93.8204 304.688H19.0466" stroke="#7974DB" stroke-linecap="round" stroke-linejoin="round" stroke-dasharray="7.57 7.57"/>
<path d="M16.2797 304.688H13.3517" stroke="#7974DB" stroke-linecap="round" stroke-linejoin="round"/>
<path d="M276.518 129.469L192.057 130.87L193.068 191.844L277.529 190.444L276.518 129.469Z" fill="#7974DB"/>
<path opacity="0.3" d="M243.038 130.017L191.973 130.864L192.984 191.839L244.049 190.992L243.038 130.017Z" fill="white"/>
<path opacity="0.3" d="M250.733 134.126L236.027 134.42L236.109 138.519L250.815 138.225L250.733 134.126Z" fill="white"/>
<path opacity="0.3" d="M251.169 181.54L236.466 181.784L236.534 185.883L251.237 185.639L251.169 181.54Z" fill="white"/>
<path d="M260.973 168.499C265.739 168.499 269.603 164.127 269.603 158.734C269.603 153.341 265.739 148.969 260.973 148.969C256.206 148.969 252.342 153.341 252.342 158.734C252.342 164.127 256.206 168.499 260.973 168.499Z" stroke="white" stroke-miterlimit="10"/>
<path d="M261.331 150.455V152.095" stroke="white" stroke-linecap="round" stroke-linejoin="round"/>
<path d="M261.705 165.476V167.116" stroke="white" stroke-linecap="round" stroke-linejoin="round"/>
<path d="M253.697 158.412H255.344" stroke="white" stroke-linecap="round" stroke-linejoin="round"/>
<path d="M266.917 158.419H268.564" stroke="white" stroke-linecap="round" stroke-linejoin="round"/>
<path d="M261.324 158.412L261.331 153.361" stroke="white" stroke-width="0.5" stroke-linecap="round" stroke-linejoin="round"/>
<path d="M261.646 158.741L265.218 162.314" stroke="white" stroke-width="0.5" stroke-linecap="round" stroke-linejoin="round"/>
<path d="M262.122 158.419C262.122 158.577 262.075 158.731 261.987 158.863C261.9 158.994 261.775 159.096 261.629 159.156C261.484 159.217 261.323 159.233 261.168 159.202C261.014 159.171 260.871 159.095 260.76 158.983C260.648 158.872 260.572 158.73 260.541 158.575C260.511 158.42 260.526 158.26 260.587 158.114C260.647 157.968 260.75 157.844 260.881 157.756C261.012 157.668 261.166 157.621 261.324 157.621C261.429 157.62 261.533 157.64 261.63 157.68C261.728 157.72 261.816 157.779 261.89 157.853C261.965 157.927 262.023 158.016 262.063 158.113C262.103 158.21 262.123 158.314 262.122 158.419Z" fill="white"/>
<path opacity="0.3" d="M260.973 171.083C267.283 171.083 272.399 165.554 272.399 158.734C272.399 151.914 267.283 146.385 260.973 146.385C254.662 146.385 249.546 151.914 249.546 158.734C249.546 165.554 254.662 171.083 260.973 171.083Z" fill="white"/>
<path d="M166.076 265.826C167.35 266.799 192.919 264.047 186.309 218.685C186.309 218.685 198.438 221.767 199.741 221.562C199.741 221.562 217.536 248.843 204.579 262.356C191.623 275.869 172.313 276.696 172.313 276.696L166.076 265.826Z" fill="#7974DB"/>
<path opacity="0.3" d="M166.076 265.826C167.35 266.799 192.919 264.047 186.309 218.685C186.309 218.685 198.438 221.767 199.741 221.562C199.741 221.562 217.536 248.843 204.579 262.356C191.623 275.869 172.313 276.696 172.313 276.696L166.076 265.826Z" fill="black"/>
<path d="M194.412 225.705C194.478 225.705 187.268 225.844 184.852 222.843C182.436 219.841 180.804 214.476 185.196 210.816C189.588 207.156 215.376 191.345 227.52 190.1C239.664 188.856 252.665 196.688 252.665 196.688L236.765 208.444L202.53 216.73L194.412 225.705Z" fill="#263238"/>
<path d="M171.098 258.681L171.764 265.24L179.64 264.574L178.454 257.832L171.098 258.681Z" fill="#FFC3BD"/>
<path d="M169.568 264.764L180.994 264.603L181.807 270.371C181.807 270.371 171.105 270.518 166.706 269.932C162.306 269.347 162.994 267.055 162.994 267.055C162.994 267.055 168.148 267.18 169.568 264.764Z" fill="#263238"/>
<path d="M269.287 281.366C270.993 264.599 260.87 249.835 246.676 248.391C232.483 246.947 219.594 259.369 217.887 276.136C216.181 292.904 226.304 307.667 240.498 309.112C254.691 310.556 267.58 298.134 269.287 281.366Z" fill="#263238"/>
<path d="M225.632 185.408C225.632 185.408 226.818 212.617 210.992 213.393C195.166 214.169 178.161 212.434 178.161 212.434L183.146 261.324L168.309 262.239C168.309 262.239 157.658 220.764 155.982 210.34C154.306 199.917 155.762 192.545 166.764 187.919C177.766 183.293 225.632 185.408 225.632 185.408Z" fill="#7974DB"/>
<path d="M137.067 271.733L156.78 214.476L183.132 185.386C183.132 185.386 160.132 185.474 149.079 191.828C138.026 198.182 137.616 205.816 135.588 214.9C133.561 223.985 125.428 266.982 125.428 266.982L137.067 271.733Z" fill="#7974DB"/>
<path opacity="0.7" d="M225.632 185.408C225.632 185.408 201.139 184.317 183.176 185.408C183.176 185.408 160.176 185.496 149.123 191.85C138.07 198.203 137.616 205.816 135.588 214.9C133.561 223.984 125.428 266.982 125.428 266.982L137.067 271.733L156.78 214.476C160.096 230.346 168.309 262.21 168.309 262.21L183.146 261.324L178.154 212.463C178.154 212.463 195.151 214.198 210.984 213.422C226.818 212.646 225.632 185.408 225.632 185.408Z" fill="black"/>
<path d="M185.196 141.276L176.097 142.381C176.097 142.381 174.516 159.107 173.045 162.357C173.045 162.357 145.06 166.2 133.597 165.871L127.778 169.824L127.573 176.697L133.275 176.866L135.113 172.51C135.113 172.51 138.963 172.342 139.856 170.175C139.856 170.175 169.59 177.356 180.541 169.158C180.555 169.165 187.158 159.466 185.196 141.276Z" fill="#FFC3BD"/>
<path d="M211.27 96.4849C211.27 96.4849 214.117 100.145 213.034 103.314C212.735 104.218 212.208 105.03 211.504 105.671C210.8 106.312 209.943 106.761 209.015 106.974C209.015 106.974 208.481 112.047 205.487 112.194C202.493 112.34 203.496 101.016 203.496 101.016L211.27 96.4849Z" fill="#263238"/>
<path d="M188.219 185.533L186.221 152.834L173.821 144.592C173.821 144.592 177.876 130.296 185.635 127.873C193.394 125.45 210.318 119.894 220.581 122.654C230.843 125.413 229.665 137.521 227.901 146.502L225.924 146.971C225.924 146.971 225.617 182.363 225.602 185.408L188.219 185.533Z" fill="#263238"/>
<path d="M210.531 124.674C206.468 128.605 198.182 130.947 195.891 128.993C193.599 127.038 196.491 125.245 198.643 123.034C199.807 121.819 199.77 119.543 199.499 117.727C199.357 116.813 199.146 115.91 198.87 115.026C191.264 114.609 188.109 111.052 187.795 104.778C187.48 98.5051 190.32 91.2217 190.32 91.2217L195.693 86.6394C195.693 86.6394 203.013 87.7374 208.869 91.7634C212.353 94.1351 211.321 98.8052 209.879 102.253C209.268 103.721 208.533 105.134 207.683 106.477C206.863 115.063 210.531 124.674 210.531 124.674Z" fill="#FFC3BD"/>
<path d="M192.026 106.506C192.026 106.506 194.954 106.645 196.235 104.83" stroke="#263238" stroke-linecap="round" stroke-linejoin="round"/>
<path d="M196.688 99.0981C196.688 99.6545 196.352 100.094 195.956 100.086C195.561 100.079 195.276 99.6179 195.29 99.0615C195.305 98.5052 195.627 98.066 196.022 98.0733C196.418 98.0807 196.71 98.5418 196.688 99.0981Z" fill="#263238"/>
<path d="M190.013 99.2737C190.013 99.83 189.676 100.269 189.281 100.262C188.885 100.255 188.6 99.7934 188.614 99.2371C188.629 98.6808 188.951 98.2415 189.346 98.2489C189.742 98.2562 190.034 98.7247 190.013 99.2737Z" fill="#263238"/>
<path d="M192.333 103.819L192.033 99.3323L189.888 103.593C190.223 103.877 190.637 104.051 191.075 104.092C191.512 104.133 191.952 104.037 192.333 103.819Z" fill="#ED847E"/>
<path d="M196.337 95.5845C196.899 95.4302 197.497 95.4802 198.025 95.7255C198.553 95.9707 198.977 96.3955 199.221 96.924" stroke="#263238" stroke-linecap="round" stroke-linejoin="round"/>
<path d="M187.948 96.4116C187.948 96.4116 189.295 94.9476 190.876 95.3209" stroke="#263238" stroke-linecap="round" stroke-linejoin="round"/>
<path d="M209.93 102.253C201.556 102.553 200.517 93.059 200.517 93.059C196.374 95.255 190.349 91.229 190.349 91.229L195.722 86.6321C195.722 86.6321 203.042 87.7447 208.898 91.7561C212.404 94.1351 211.372 98.8199 209.93 102.253Z" fill="#263238"/>
<path d="M187.655 94.0107C187.655 94.0107 183.322 91.1266 185.233 89.0477C187.143 86.9689 198.848 90.9217 207.595 95.7675C207.595 95.7675 187.56 82.3646 182.114 86.6029C177.612 90.1091 187.597 94.9769 187.297 94.9696L187.655 94.0107Z" fill="#7974DB"/>
<path d="M212.097 93.0298C212.085 94.5476 211.797 96.0506 211.248 97.4657L191.572 87.9497C192.387 87.0084 193.364 86.2201 194.456 85.6219C195.62 84.9558 196.887 84.486 198.204 84.2311C199.6 83.9641 201.03 83.9147 202.442 84.0847C209.638 84.9119 212.134 90.4458 212.097 93.0298Z" fill="#7974DB"/>
<path d="M166.896 180.555C165.615 181.895 149.05 178.462 146.159 179.999C144.936 180.643 144.402 182.927 143.172 185.43C141.496 188.834 138.516 192.567 130.728 192.816C117.201 193.248 118.833 179.523 117.764 175.065C117.764 175.065 104.954 172.73 104.281 170.483C103.607 168.236 104.435 167.899 104.435 167.899C104.435 167.899 120.238 170.827 123.298 166.83C123.891 166.251 124.586 165.787 125.348 165.461C127.104 164.689 128.993 164.264 130.911 164.21C136.481 163.917 143.274 165.483 145.178 169.011C149.043 176.207 165.615 174.589 167.138 176.478C168.66 178.366 168.177 179.216 166.896 180.555Z" fill="#7974DB"/>
<path d="M124.96 189.932C124.96 189.932 102.736 220.676 121.036 268" stroke="#263238" stroke-linecap="round" stroke-linejoin="round"/>
<path d="M154.291 205.904C154.291 205.904 154.291 205.963 154.291 206.08C154.291 206.197 154.291 206.263 154.291 206.395V206.468C154.027 209.429 153.537 212.365 152.827 215.252C151.817 219.519 150.477 223.582 149.372 226.847C144.687 240.718 145.229 255.666 145.229 255.666C143.677 253.733 140.837 252.357 137.287 251.391C124.359 247.84 102.414 249.744 102.414 249.744C98.1099 234.643 99.6471 211.006 103.929 197.772C108.212 184.537 120.085 187.524 120.085 187.524C120.085 187.524 132.616 187.89 134.19 187.721C137.071 187.372 139.986 187.431 142.85 187.897C152.527 189.668 154.855 197.318 154.291 205.904Z" fill="#7974DB"/>
<path d="M250.776 263.52C228.816 283.343 186.426 285.421 154.884 283.225L137.213 251.435L130.054 238.559L153.054 207.559L154.269 205.926C154.269 205.926 154.269 205.985 154.269 206.102C154.269 206.219 154.269 206.285 154.269 206.417V206.49C153.954 212.017 151.919 256.368 168.177 267.246L168.309 267.341C170.509 268.763 173.061 269.543 175.68 269.596C205.509 270.459 204.675 231.532 197.091 223.194L248.851 212.792C248.851 212.792 259.069 238.522 250.776 263.52Z" fill="#7974DB"/>
<path d="M193.204 214.754C193.204 214.754 188.351 218.78 190.854 224.182C193.358 229.584 217.492 219.095 226.993 217.184C236.495 215.274 247.489 213.407 252.218 212.434C256.947 211.46 256.537 197.896 252.672 196.696C248.807 195.495 210.948 202.186 204.667 205.86C200.52 208.379 196.674 211.363 193.204 214.754Z" fill="#263238"/>
<path d="M205.355 105.606C204.893 105.108 204.614 104.469 204.562 103.792C204.51 103.116 204.689 102.442 205.07 101.88C206.241 100.123 208.605 97.334 210.875 99.4202C214.051 102.348 208.627 107.67 206.38 106.381C206.004 106.172 205.659 105.911 205.355 105.606Z" fill="#FFC3BD"/>
<path opacity="0.2" d="M187.656 94.0107C187.656 94.0107 183.322 91.1266 185.233 89.0477C186.082 88.1254 188.622 88.3157 192.055 89.2966C194.263 89.8909 196.425 90.6419 198.526 91.5439C201.542 92.8541 204.748 94.5304 207.595 95.7675C207.595 95.7675 187.56 82.3646 182.114 86.6029C177.613 90.1091 186.975 94.6549 187.304 94.9623L187.465 94.3694L187.656 94.0107Z" fill="black"/>
<path d="M189.713 92.759C189.713 92.759 185.32 93.491 188.351 98.2197L189.713 92.759Z" fill="#263238"/>
<path d="M193.921 89.8748C193.921 89.8748 187.297 87.547 185.452 88.8646C183.608 90.1822 185.54 92.693 187.648 93.9886L189.339 94.2082L190.335 91.207L192.911 90.8922L193.921 89.8748Z" fill="#263238"/>
<path opacity="0.3" d="M202.947 86.2955L201.359 88.6452L194.456 85.644C195.62 84.9779 196.887 84.508 198.204 84.2532L202.947 86.2955Z" fill="white"/>
<path opacity="0.1" d="M201.41 114.382C200.953 115.597 200.297 116.728 199.47 117.728C199.327 116.813 199.117 115.91 198.84 115.026C199.728 114.964 200.598 114.746 201.41 114.382Z" fill="black"/>
<path d="M135.786 178.754C135.493 183.827 133.297 187.978 130.603 189.002C130.137 189.182 129.638 189.259 129.139 189.229C125.816 189.039 123.401 184.054 123.737 178.103C124.074 172.152 127.046 167.482 130.369 167.672C131.723 167.745 132.917 168.616 133.846 170.014C135.215 172.02 135.984 175.226 135.786 178.754Z" fill="#F5F5F5"/>
<path d="M135.786 178.754C135.493 183.827 133.297 187.977 130.603 189.002C127.529 188.827 125.296 184.222 125.611 178.754C125.926 173.286 128.664 168.945 131.738 169.121C132.53 169.18 133.28 169.502 133.868 170.036C135.215 172.02 135.984 175.226 135.786 178.754Z" fill="white"/>
<path d="M254.421 250.659C248.763 246.684 226.869 242.782 226.869 242.782C213.568 242.782 201.893 254.751 200.283 270.642C198.965 283.57 204.675 295.303 213.876 300.654C213.876 300.654 214.644 300.976 215.933 301.482C220.808 303.407 233.179 308.07 240.491 309.094" fill="#263238"/>
<path opacity="0.3" d="M269.287 281.366C270.993 264.599 260.87 249.835 246.676 248.391C232.483 246.947 219.594 259.369 217.887 276.136C216.181 292.904 226.304 307.667 240.498 309.112C254.691 310.556 267.58 298.134 269.287 281.366Z" fill="black"/>
<path d="M155.49 280.39C157.197 263.623 147.074 248.859 132.88 247.415C118.687 245.971 105.797 258.393 104.091 275.16C102.385 291.928 112.508 306.691 126.702 308.136C140.895 309.58 153.784 297.158 155.49 280.39Z" fill="#263238"/>
<path d="M145.58 253.008L132.492 307.96C130.583 308.269 128.641 308.326 126.717 308.128H126.57C124.059 307.484 125.179 308.179 122.661 307.345C116.256 305.229 106.953 301.489 106.953 301.489C97.0925 296.694 91.522 285.033 92.8762 271.711C94.5159 255.57 106.096 243.514 119.726 244.502C119.726 244.502 126.197 245.696 132.858 247.43C135.786 248.162 138.714 249.034 141.122 249.941C142.717 250.796 144.212 251.825 145.58 253.008Z" fill="#263238"/>
<path opacity="0.3" d="M155.491 280.356C154.027 294.813 144.241 306.034 132.477 307.93C130.568 308.24 128.626 308.296 126.702 308.099H126.556C123.875 307.809 121.271 307.033 118.87 305.807C108.98 300.793 102.722 288.613 104.09 275.144C105.796 258.389 118.657 245.981 132.843 247.401H132.88C135.76 247.692 138.556 248.545 141.108 249.912C142.703 250.769 144.198 251.8 145.566 252.986C152.571 259.077 156.648 269.295 155.491 280.356Z" fill="black"/>
<path d="M151.927 261.104C151.498 260.42 151.008 259.775 150.463 259.179C147.191 254.714 139.71 253.045 134.812 253.44C131.058 253.807 127.454 255.099 124.323 257.203C120.751 259.516 118.196 263.059 114.653 265.489C107.933 270.13 97.7366 269.998 90.9876 265.218C90.607 264.948 90.2451 264.652 89.9042 264.332C89.2164 263.616 88.7577 262.712 88.5866 261.734C88.3284 260.513 88.4224 259.244 88.8575 258.074C90.3215 253.96 95.2039 250.344 98.2856 248.141C104.534 243.733 111.882 241.145 119.514 240.667C141.276 239.166 150.558 257.752 151.927 261.104Z" fill="#7974DB"/>
<path opacity="0.3" d="M150.419 261.69C145.741 254.941 139.739 253.045 134.842 253.44C131.088 253.807 127.483 255.1 124.352 257.203C120.78 259.516 118.225 263.059 114.682 265.489C107.963 270.13 97.7659 269.998 91.0169 265.218C90.6363 264.948 90.2744 264.652 89.9335 264.333C89.2457 263.617 88.787 262.712 88.6159 261.734C88.3577 260.513 88.4516 259.244 88.8868 258.074C91.1487 260.687 97.7367 266.982 106.66 263.93C117.786 260.087 120.502 248.668 132.397 248.77C141.847 248.88 147.666 256.2 150.419 261.69Z" fill="black"/>
<g opacity="0.3">
<path d="M101.47 246.128C104.644 243.872 108.215 242.235 111.996 241.304C115.781 240.34 119.7 240.019 123.591 240.352C127.476 240.726 131.28 241.694 134.871 243.221L136.203 243.807L137.506 244.459C138.385 244.868 139.212 245.381 140.061 245.849C140.91 246.318 141.693 246.896 142.506 247.416C143.318 247.936 144.08 248.543 144.855 249.121C141.663 246.983 138.255 245.184 134.688 243.756C131.128 242.327 127.376 241.432 123.554 241.099C119.74 240.734 115.893 240.981 112.157 241.831C110.282 242.246 108.443 242.814 106.66 243.529C104.85 244.226 103.112 245.096 101.47 246.128Z" fill="black"/>
</g>
<g opacity="0.3">
<path d="M125.172 240.894C124.259 237.841 123.711 234.691 123.54 231.509C123.298 228.34 123.247 225.156 123.313 221.993C123.379 218.831 123.598 215.64 123.891 212.477L124.425 207.749C124.66 206.175 124.865 204.601 125.157 203.035L124.491 212.551L124.228 217.294C124.184 218.875 124.089 220.456 124.081 222.037C123.957 225.2 124.015 228.362 124.133 231.553C124.184 233.135 124.308 234.708 124.469 236.282C124.598 237.834 124.833 239.374 125.172 240.894Z" fill="black"/>
</g>
<path opacity="0.3" d="M168.14 267.18C152.856 257.349 152.249 231.985 152.768 215.252C152.864 212.375 152.981 209.762 153.069 207.515C153.229 205.265 153.229 203.007 153.069 200.758C151.524 189.266 142.74 187.882 142.74 187.882H142.777C152.505 189.668 154.833 197.318 154.269 205.904C154.269 205.904 154.269 205.963 154.269 206.08C154.269 206.197 154.269 206.263 154.269 206.395V206.468C153.94 211.994 151.905 256.346 168.14 267.18Z" fill="black"/>
<path opacity="0.2" d="M166.896 180.555C165.615 181.895 149.05 178.462 146.158 179.999C144.936 180.643 144.402 182.927 143.172 185.43C139.717 190.92 134.856 191.784 134.556 191.828C140.354 187.436 141.971 176.866 139.095 170.183C136.218 163.5 125.919 165.234 125.333 165.432C127.089 164.66 128.978 164.235 130.896 164.18C136.467 163.887 143.26 165.454 145.163 168.982C149.028 176.178 165.6 174.56 167.123 176.449C168.645 178.337 168.177 179.216 166.896 180.555Z" fill="black"/>
<path d="M153.925 174.165C152.918 176.023 152.516 178.15 152.776 180.247L166.808 181.829C167.526 180.998 168.056 180.023 168.363 178.97C168.67 177.917 168.746 176.809 168.587 175.724C168.587 175.724 154.686 174.326 153.925 174.165Z" fill="#263238"/>
<path d="M111.315 173.645C111.315 173.645 109.917 170.673 111.593 168.792C107.846 168.455 105.525 168.06 103.11 167.708C102.751 168.799 102.575 169.846 103.842 171.508C105.108 173.169 111.315 173.645 111.315 173.645Z" fill="#263238"/>
<path d="M103.519 192.245C101.089 196.205 99.0103 202.544 98.8273 212.668" stroke="#7974DB" stroke-linecap="round" stroke-linejoin="round"/>
<path d="M111.52 185.716C109.752 186.126 108.127 187.003 106.813 188.256" stroke="#7974DB" stroke-linecap="round" stroke-linejoin="round"/>
<path d="M220.683 147.556L211.445 148.684C211.445 148.684 209.835 165.659 208.342 168.96C208.342 168.96 179.933 172.869 168.287 172.525L162.38 176.536L162.175 183.52L167.965 183.688L169.831 179.296C169.831 179.296 173.74 179.128 174.641 176.924C174.641 176.924 204.828 184.244 215.947 175.899C215.94 175.87 222.652 166.025 220.683 147.556Z" fill="#FFC3BD"/>
<path opacity="0.2" d="M145.463 278.16C145.2 287.368 139.168 294.659 131.987 294.454C131.022 294.425 130.066 294.26 129.147 293.964C123.393 292.134 119.25 285.348 119.477 277.406C119.704 269.72 123.942 263.366 129.513 261.602C130.626 261.244 131.792 261.078 132.96 261.112C140.141 261.324 145.734 268.981 145.463 278.16Z" fill="#FAFAFA"/>
<path d="M138.853 278.16C138.626 286.022 134.461 292.485 129.147 293.986C123.393 292.156 119.25 285.37 119.477 277.428C119.704 269.742 123.942 263.388 129.513 261.624C135.047 263.125 139.08 270.02 138.853 278.16Z" fill="#263238"/>
<path opacity="0.2" d="M258.25 278.892C257.979 288.1 251.947 295.398 244.774 295.186C243.808 295.161 242.851 294.996 241.933 294.696C236.173 292.866 232.029 286.087 232.264 278.138C232.483 270.459 236.721 264.098 242.292 262.334C243.405 261.976 244.571 261.81 245.74 261.844C252.921 262.056 258.513 269.698 258.25 278.892Z" fill="#FAFAFA"/>
<path d="M251.64 278.892C251.405 286.746 247.248 293.21 241.933 294.71C236.173 292.88 232.029 286.102 232.264 278.153C232.483 270.474 236.721 264.113 242.292 262.349C247.833 263.849 251.874 270.745 251.64 278.892Z" fill="#263238"/>
<path d="M269.566 254.633C269.691 263.688 255.907 269.683 232.842 273.461C226.625 274.554 220.271 274.628 214.03 273.68C203.782 271.989 198.775 267.656 198.775 267.656C198.775 267.656 201.381 236.363 227.169 232.395C244.737 229.702 257.957 236.787 264.662 244.422C267.817 248.009 269.53 251.735 269.566 254.633Z" fill="#7974DB"/>
<path opacity="0.3" d="M269.566 254.633C269.691 263.688 255.907 269.683 232.842 273.46C226.625 274.554 220.271 274.628 214.03 273.68C215.135 265.182 220.098 242.892 241.67 240.579C251.457 239.525 259.011 241.501 264.662 244.422C267.817 248.009 269.53 251.735 269.566 254.633Z" fill="black"/>
<g opacity="0.3">
<path d="M200.268 267.795C200.742 263.535 201.758 259.353 203.291 255.351C204.798 251.307 206.879 247.501 209.469 244.049C210.778 242.333 212.249 240.747 213.861 239.313C215.459 237.855 217.22 236.588 219.109 235.536C222.869 233.415 227.036 232.116 231.334 231.722C229.228 232.075 227.156 232.609 225.141 233.318C224.124 233.625 223.165 234.101 222.213 234.504C221.258 234.961 220.328 235.467 219.424 236.019C218.502 236.546 217.653 237.183 216.782 237.776C215.911 238.368 215.105 239.071 214.337 239.811C212.774 241.231 211.35 242.797 210.084 244.488C207.513 247.873 205.417 251.595 203.855 255.549C203.044 257.518 202.345 259.532 201.761 261.58C201.14 263.62 200.641 265.695 200.268 267.795Z" fill="black"/>
</g>
<path d="M165.659 257.459L167.181 262.627L183.146 261.295L183.359 254.07L165.659 257.459Z" fill="#7974DB"/>
<path d="M260.709 222.213L295.838 220.786" stroke="#7974DB" stroke-linecap="round" stroke-linejoin="round"/>
<path d="M307.447 214.388L312.666 214.176" stroke="#7974DB" stroke-linecap="round" stroke-linejoin="round"/>
<path d="M277.545 215.603L303.443 214.549" stroke="#7974DB" stroke-linecap="round" stroke-linejoin="round"/>
<path d="M295.669 233.786L317.373 232.908" stroke="#7974DB" stroke-linecap="round" stroke-linejoin="round"/>
<path d="M282.252 234.335L291.709 233.947" stroke="#7974DB" stroke-linecap="round" stroke-linejoin="round"/>
</svg>
