<svg width="121" height="143" viewBox="0 0 121 143" fill="none" xmlns="http://www.w3.org/2000/svg">
<path d="M87.8983 19.7791L85.4237 54.8293C85.2277 57.5875 83.9934 60.1689 81.9695 62.0532C79.9457 63.9375 77.2828 64.9845 74.5176 64.9833C73.0208 64.9835 71.5399 64.6763 70.1667 64.0807C68.7935 63.485 67.5574 62.6137 66.5348 61.5206C65.5123 60.4275 64.7251 59.1361 64.2223 57.7263C63.7194 56.3165 63.5115 54.8184 63.6114 53.325C63.8295 49.9892 64.0288 47.2589 64.0288 47.2589C64.0288 47.2589 55.5408 45.9388 55.4355 37.4546C55.3753 32.5656 56.2215 21.4338 56.9398 12.9157C57.1772 10.1381 58.4486 7.5507 60.5023 5.66551C62.556 3.78032 65.2425 2.73465 68.0303 2.73535H73.1712C75.268 2.85764 77.3188 3.39936 79.2025 4.32844C81.0861 5.25752 82.7642 6.55506 84.1374 8.14427C85.5106 9.73348 86.551 11.582 87.197 13.5805C87.843 15.579 88.0815 17.6868 87.8983 19.7791Z" fill="#B78876"/>
<path d="M64.0213 47.1538C64.0213 47.1538 69.3841 47.59 75.0817 44.0098C75.0817 44.0098 72.4679 50.1172 64.0025 49.3538L64.0213 47.1538Z" fill="#AA6550"/>
<path d="M59.5911 23.1864C59.5879 23.5025 59.7085 23.8073 59.927 24.0356C60.1456 24.264 60.4447 24.3979 60.7606 24.4087C60.9146 24.4209 61.0695 24.4023 61.2162 24.3538C61.3629 24.3053 61.4983 24.228 61.6147 24.1264C61.731 24.0247 61.8259 23.9009 61.8936 23.7621C61.9614 23.6232 62.0007 23.4723 62.0092 23.318C62.0124 23.0022 61.8925 22.6976 61.6748 22.4687C61.4572 22.2398 61.159 22.1047 60.8434 22.092C60.6889 22.0798 60.5335 22.0985 60.3864 22.1472C60.2393 22.1958 60.1034 22.2734 59.9867 22.3754C59.87 22.4774 59.7749 22.6017 59.7069 22.7409C59.639 22.8802 59.5996 23.0317 59.5911 23.1864Z" fill="#263238"/>
<path d="M58.4177 21.4412C58.5681 21.5991 59.4857 20.9222 60.787 20.926C62.0882 20.9297 63.0434 21.5803 63.1901 21.4224C63.2578 21.3509 63.1036 21.0463 62.6899 20.7605C62.1255 20.3703 61.4543 20.1641 60.7682 20.17C60.0924 20.1673 59.4335 20.3808 58.8878 20.7793C58.4779 21.0877 58.3425 21.3735 58.4177 21.4412Z" fill="#263238"/>
<path d="M72.3137 23.1866C72.3106 23.5027 72.4312 23.8074 72.6497 24.0358C72.8682 24.2642 73.1674 24.3981 73.4833 24.4088C73.6373 24.4211 73.7922 24.4025 73.9388 24.354C74.0855 24.3055 74.221 24.2282 74.3373 24.1266C74.4537 24.0249 74.5485 23.9011 74.6163 23.7623C74.684 23.6234 74.7233 23.4725 74.7319 23.3182C74.735 23.0018 74.6146 22.6966 74.3961 22.4676C74.1777 22.2387 73.8785 22.104 73.5623 22.0922C73.4081 22.0805 73.2531 22.0996 73.1064 22.1485C72.9598 22.1974 72.8243 22.2751 72.708 22.377C72.5917 22.479 72.497 22.6031 72.4293 22.7421C72.3616 22.8811 72.3223 23.0322 72.3137 23.1866Z" fill="#263238"/>
<path d="M71.2306 21.6821C71.381 21.8401 72.3024 21.1594 73.6036 21.1631C74.9049 21.1669 75.8601 21.8213 76.0068 21.6596C76.0745 21.5881 75.924 21.3061 75.5066 21.0014C74.941 20.6132 74.2708 20.406 73.5848 20.4072C72.9099 20.4096 72.2525 20.6226 71.7045 21.0165C71.2945 21.3286 71.1592 21.6144 71.2306 21.6821Z" fill="#263238"/>
<path d="M66.4996 31.3546C66.4996 31.2794 65.6948 31.1402 64.3823 30.9785C64.0514 30.9409 63.7355 30.877 63.679 30.6476C63.6503 30.3041 63.7277 29.9602 63.9009 29.6622C64.2118 28.8574 64.5403 28.0125 64.8863 27.1275C66.2514 23.5172 67.2442 20.5499 67.0976 20.4973C66.9509 20.4446 65.7249 23.3254 64.356 26.9319C64.0275 27.8245 63.7129 28.6757 63.412 29.4855C63.2879 29.8616 63.0698 30.2903 63.2428 30.7905C63.2901 30.9079 63.3639 31.0129 63.4585 31.0971C63.5531 31.1812 63.6659 31.2423 63.7881 31.2756C63.9716 31.3279 64.1614 31.3544 64.3522 31.3546C65.676 31.4223 66.4958 31.4298 66.4996 31.3546Z" fill="#263238"/>
<path d="M70.3355 32.2574C70.1249 32.2574 70.1212 33.6602 68.9102 34.6643C67.6992 35.6685 66.1949 35.5143 66.1836 35.7098C66.1611 35.8001 66.5184 35.9844 67.1539 36.0032C67.9833 36.0148 68.7902 35.7338 69.4329 35.2096C70.0499 34.7057 70.4465 33.9814 70.5386 33.1901C70.5912 32.5884 70.4333 32.2499 70.3355 32.2574Z" fill="#263238"/>
<path d="M70.896 16.575C71.0238 16.9511 72.3251 16.7631 73.8557 16.9511C75.3863 17.1391 76.6236 17.5528 76.8267 17.2332C76.9169 17.0827 76.7026 16.748 76.2024 16.4058C75.5374 15.9856 74.7855 15.7222 74.0036 15.6356C73.2217 15.5489 72.4304 15.6413 71.6895 15.9056C71.1066 16.1313 70.8396 16.4171 70.896 16.575Z" fill="#263238"/>
<path d="M58.8953 17.6693C59.1247 17.9664 60.0235 17.6693 61.1029 17.643C62.1822 17.6166 63.0961 17.8423 63.3067 17.5339C63.4007 17.3835 63.2578 17.0864 62.8554 16.8043C62.3187 16.4682 61.6942 16.2994 61.0612 16.3195C60.4283 16.3396 59.8157 16.5476 59.3015 16.9171C58.9216 17.218 58.7938 17.5452 58.8953 17.6693Z" fill="#263238"/>
<path d="M85.0213 26.1462C85.168 26.0823 90.8505 24.4238 90.6624 30.2229C90.4744 36.022 84.6941 34.6418 84.6866 34.4725C84.6791 34.3033 85.0213 26.1462 85.0213 26.1462Z" fill="#B78876"/>
<path d="M86.5481 32.3325C86.5745 32.3325 86.6459 32.4077 86.8151 32.4904C87.0514 32.5998 87.3205 32.6146 87.5673 32.5318C88.1878 32.325 88.7331 31.3697 88.7971 30.3242C88.826 29.8276 88.7451 29.3307 88.5601 28.8688C88.5097 28.6841 88.4147 28.5145 88.2836 28.3748C88.1525 28.2352 87.9892 28.1298 87.808 28.0678C87.6926 28.0335 87.5689 28.0407 87.4583 28.0881C87.3478 28.1355 87.2572 28.2201 87.2025 28.3273C87.1198 28.4852 87.1536 28.6018 87.1235 28.6131C87.0934 28.6244 86.9994 28.5116 87.0558 28.2709C87.0931 28.1289 87.1781 28.0041 87.2965 27.9174C87.3772 27.8592 87.4686 27.8177 87.5654 27.7951C87.6622 27.7725 87.7626 27.7693 87.8606 27.7857C88.097 27.8409 88.3154 27.9555 88.4951 28.1188C88.6748 28.282 88.8098 28.4884 88.8873 28.7184C89.1161 29.2294 89.218 29.788 89.1844 30.3468C89.1092 31.5164 88.4774 32.6033 87.6312 32.8063C87.4737 32.8468 87.309 32.8512 87.1495 32.8193C86.99 32.7874 86.8397 32.72 86.7098 32.6221C86.5557 32.4754 86.5256 32.3438 86.5481 32.3325Z" fill="#AA6550"/>
<path d="M88.2631 25.9503C87.3793 25.7359 85.8487 26.552 85.4726 27.3794C85.0966 28.2067 85.0138 29.1469 84.6377 29.978C84.2617 30.8092 83.4117 31.5538 82.5242 31.3432C82.2243 31.2494 81.9547 31.0778 81.7426 30.846C81.5306 30.6141 81.3837 30.3302 81.317 30.0232C81.1891 29.4035 81.1827 28.7649 81.2982 28.1428C81.6404 25.4351 82.2083 22.7499 82.3174 20.0196C82.4264 17.2893 82.0391 14.4574 80.6062 12.122C79.1734 9.78658 76.5446 8.08673 73.8369 8.30861C72.0355 8.45152 70.3807 9.39171 68.5906 9.64367C67.5241 9.78474 66.4394 9.68093 65.4189 9.34013C64.3984 8.99932 63.469 8.43048 62.7013 7.67681C62.5057 7.48501 61.6032 6.88705 61.6032 6.88705C61.6032 6.7479 61.7348 5.53694 62.2124 5.09317C65.7663 1.81003 72.1671 0.892412 76.8605 2.08457C81.5539 3.27673 85.954 6.59747 87.9735 10.975C89.9931 15.3525 89.3913 21.5051 88.2782 25.9428" fill="#263238"/>
<path d="M56.8608 11.6259C56.8608 11.6259 79.1169 4.48044 88.7444 23.7204C88.7444 23.7204 90.1848 18.9029 90.1848 16.3193C90.1848 14.5931 89.1544 4.31873 78.5791 1.08448C78.5791 1.08448 62.6524 -4.99289 56.8608 11.6259Z" fill="#DBD9F5"/>
<path d="M75.9955 12.1072C75.6001 12.7447 75.062 13.2817 74.4237 13.6758C73.7853 14.0698 73.0642 14.3103 72.317 14.3781C71.5699 14.4459 70.8172 14.3393 70.1184 14.0666C69.4195 13.7939 68.7935 13.3626 68.2897 12.8067C68.0684 13.36 67.6795 13.8302 67.1775 14.1513C66.6755 14.4724 66.0856 14.6283 65.4904 14.5972C64.8953 14.5661 64.3249 14.3495 63.8591 13.9778C63.3933 13.6061 63.0555 13.098 62.8931 12.5246C62.2897 13.1971 61.5517 13.7352 60.7269 14.1041C59.8807 14.4163 58.8089 14.2959 58.2561 13.5889C57.7032 12.8819 57.8537 11.7649 58.4102 11.0353C59.0181 10.3455 59.7961 9.82684 60.6667 9.53104C63.3052 8.37073 66.2046 7.93206 69.0682 8.2599C71.9076 8.63598 74.6567 10.0199 76.4318 12.2689" fill="#263238"/>
<g opacity="0.4">
<path d="M56.8608 11.6259C58.7123 9.67473 61.251 8.52141 63.9385 8.41042C70.5048 8.12084 82.7912 11.8139 88.7595 23.7204C88.7595 23.7204 90.1998 18.9029 90.1998 16.3193C90.1998 14.5931 89.1694 4.31873 78.5942 1.08448C78.5791 1.08448 62.6523 -4.99289 56.8608 11.6259Z" fill="black"/>
</g>
<path d="M87.8156 21.4676C84.5174 16.4169 79.9669 12.2425 74.8485 9.0571C69.7301 5.87174 61.2722 2.70143 55.443 1.15953C53.6905 0.693193 51.8665 0.287032 50.0802 0.595414C48.2938 0.903795 46.5488 2.09971 46.1088 3.84846C45.5522 6.0485 49.4559 9.44069 51.2874 10.772C53.1189 12.1033 56.8608 14.0627 56.8608 14.0627C56.8608 14.0627 56.8082 9.986 63.3368 9.14736C72.2122 7.98529 87.8156 21.4676 87.8156 21.4676Z" fill="#DBD9F5"/>
<path d="M69.5609 4.83385C69.5609 4.83385 66.3567 3.05878 63.1338 2.6451C63.672 2.22676 64.2593 1.87567 64.8825 1.59961C66.6319 1.88877 68.3233 2.45765 69.8918 3.28443L69.5609 4.83385Z" fill="#E0E0E0"/>
<path d="M51.498 54.5737L58.5569 53.0167L61.4301 52.2984L63.8219 48.5903C63.8219 48.5903 64.9502 55.2205 69.2337 58.7895C69.8137 59.264 70.4935 59.6012 71.2223 59.7757C71.9511 59.9502 72.7099 59.9576 73.4419 59.7974C74.4085 59.5943 75.5442 59.3461 76.3866 59.1204C76.5671 59.0715 76.7627 59.0076 76.9733 58.9324C80.0701 57.7824 82.6502 55.5574 84.2428 52.6632C85.1905 50.9784 85.9916 49.2485 85.717 48.5903L89.0679 55.5289L108.812 64.6224L120.023 92.0082L98.2967 98.4315L97.6198 120.996L101.711 149.442L40.2496 149.484L42.4308 86.1941" fill="#DBD9F5"/>
<path d="M67.3871 79.0748C67.5123 79.0848 67.638 79.0848 67.7632 79.0748L68.8576 79.0485L72.765 78.9093H72.8402V78.8454C72.9041 77.1493 72.9831 75.1411 73.0696 72.9937C73.1712 69.8986 73.2614 67.1006 73.3329 65.0434C73.3554 64.0431 73.3742 63.227 73.3893 62.6328C73.3893 62.3658 73.3893 62.1477 73.3893 61.9784C73.399 61.9023 73.399 61.8252 73.3893 61.749C73.372 61.823 73.3631 61.8987 73.363 61.9747C73.363 62.1477 73.3366 62.3507 73.3216 62.629C73.2915 63.2232 73.2501 64.0393 73.2013 65.0359C73.1185 67.0931 73.0057 69.891 72.8816 72.9824C72.8064 75.1335 72.7387 77.1418 72.6785 78.8379L72.7612 78.7589L68.8538 78.9657L67.7632 79.0372C67.6369 79.036 67.5107 79.0486 67.3871 79.0748Z" fill="#263238"/>
<path d="M70.7304 69.9325C70.6442 69.8721 70.5423 69.8381 70.4371 69.8348C70.1929 69.8188 69.9494 69.8739 69.7358 69.9934C69.5223 70.1128 69.3479 70.2915 69.2337 70.5079C69.1264 70.719 69.0882 70.9584 69.1246 71.1924C69.1647 71.4575 69.2809 71.7053 69.4592 71.9055C69.6374 72.1058 69.87 72.25 70.1287 72.3206C70.3906 72.3755 70.6625 72.3572 70.9146 72.2676C71.1667 72.178 71.3893 72.0207 71.5578 71.8129C71.6944 71.6455 71.79 71.4485 71.837 71.2376C71.884 71.0267 71.8811 70.8078 71.8286 70.5982C71.7702 70.3129 71.6289 70.0513 71.4224 69.846C71.2795 69.7069 71.1742 69.6618 71.1704 69.673C71.1667 69.6843 71.2457 69.752 71.366 69.8987C71.5327 70.1046 71.6452 70.349 71.6932 70.6095C71.7314 70.797 71.7269 70.9907 71.68 71.1763C71.6331 71.3618 71.5451 71.5344 71.4224 71.6813C71.272 71.8586 71.077 71.9926 70.8575 72.0693C70.638 72.146 70.402 72.1626 70.1738 72.1175C69.9519 72.0549 69.7523 71.9305 69.5985 71.7587C69.4446 71.5868 69.3429 71.3748 69.3051 71.1473C69.2739 70.9607 69.2949 70.7692 69.3659 70.5939C69.437 70.4187 69.5552 70.2665 69.7075 70.1544C69.9139 69.9897 70.1693 69.8984 70.4333 69.8949C70.6289 69.91 70.7304 69.9476 70.7304 69.9325Z" fill="#263238"/>
<path d="M71.3961 61.9861C71.3092 61.9099 71.2021 61.8602 71.0877 61.8432C70.7755 61.7772 70.45 61.8253 70.1701 61.9786C69.9715 62.0798 69.8019 62.23 69.6774 62.4149C69.5328 62.6314 69.4604 62.8881 69.4706 63.1482C69.4824 63.4448 69.5835 63.731 69.7607 63.9692C69.9378 64.2074 70.1828 64.3866 70.4634 64.4833C70.7504 64.5567 71.0527 64.5438 71.3323 64.4461C71.612 64.3484 71.8566 64.1703 72.0354 63.9342C72.1941 63.7305 72.2896 63.4846 72.31 63.2272C72.3217 63.0053 72.2858 62.7835 72.2047 62.5766C72.088 62.2822 71.8813 62.0321 71.6142 61.862C71.5212 61.7924 71.4104 61.7507 71.2946 61.7417C71.2946 61.7417 71.4036 61.7981 71.5691 61.926C71.8017 62.105 71.9769 62.3481 72.073 62.6255C72.1485 62.8241 72.1715 63.0388 72.1399 63.249C72.1083 63.4591 72.0231 63.6575 71.8925 63.8252C71.7337 64.0279 71.5195 64.1802 71.2759 64.2636C71.0322 64.3471 70.7696 64.3581 70.5198 64.2952C70.2777 64.2093 70.0662 64.054 69.9117 63.8487C69.7572 63.6434 69.6666 63.3972 69.6511 63.1407C69.6411 62.9299 69.6905 62.7206 69.7935 62.5364C69.8966 62.3523 70.0492 62.2007 70.234 62.099C70.4868 61.95 70.781 61.8867 71.0727 61.9185C71.2795 61.9448 71.3886 62.0012 71.3961 61.9861Z" fill="#263238"/>
<path d="M73.3969 92.339C73.3969 92.339 73.3668 92.3202 73.3028 92.2976L73.0208 92.1886C72.7688 92.1021 72.4115 91.9441 71.9565 91.7335C70.6858 91.0928 69.5193 90.2636 68.4966 89.274C66.9932 87.7935 65.6646 86.1456 64.5365 84.3625C63.1259 82.1948 61.8377 79.9499 60.678 77.6382C58.5926 73.4248 56.7628 69.0896 55.1986 64.6561C54.5856 62.9563 54.108 61.5761 53.7733 60.6246L53.3972 59.5265C53.3558 59.4136 53.3182 59.3196 53.2919 59.2444C53.2812 59.2118 53.2674 59.1803 53.2505 59.1504C53.2533 59.1851 53.2609 59.2193 53.2731 59.2519C53.2956 59.3271 53.3257 59.4212 53.3596 59.5415C53.4461 59.8085 53.5627 60.1771 53.7093 60.6697C54.0215 61.6287 54.4803 63.0164 55.082 64.7201C56.6057 69.1655 58.4172 73.5071 60.505 77.7172C61.6675 80.0354 62.9634 82.2844 64.3861 84.4527C65.5274 86.2454 66.8755 87.8977 68.4026 89.3755C69.4415 90.3636 70.6294 91.1822 71.9226 91.8012C72.2765 91.9636 72.6394 92.1055 73.0095 92.2262L73.2991 92.3164C73.3303 92.3289 73.3633 92.3365 73.3969 92.339Z" fill="#263238"/>
<path d="M60.4486 84.829C60.2869 84.829 56.5449 84.5732 56.5449 84.5732C56.5449 84.5732 58.0906 87.3035 59.7002 88.334H62.9758L60.4486 84.829Z" fill="#FAFAFA"/>
<path d="M74.0511 100.609C73.9871 100.547 73.9164 100.493 73.8405 100.447L73.2087 100.011C72.6634 99.6349 71.8774 99.0708 70.9335 98.3449C69.0531 96.9046 66.5484 94.7534 63.8708 92.2939C62.532 91.0641 61.2383 89.9058 60.1326 88.7926C59.1405 87.8166 58.2192 86.771 57.376 85.6637C56.8101 84.9168 56.3069 84.1243 55.8717 83.2944C55.7062 83.0048 55.6047 82.7679 55.5257 82.61C55.49 82.5267 55.4459 82.4473 55.3941 82.373C55.4182 82.4596 55.4496 82.5438 55.4881 82.625C55.5558 82.7867 55.6498 83.0312 55.804 83.3283C56.2172 84.1771 56.7068 84.9865 57.2669 85.7464C58.0989 86.8725 59.0154 87.9336 60.0085 88.9205C61.1179 90.0487 62.4041 91.2108 63.7429 92.4368C66.4206 94.8963 68.929 97.04 70.8508 98.454C71.8097 99.1648 72.6108 99.7063 73.1674 100.071C73.4494 100.252 73.6713 100.383 73.8217 100.477C73.893 100.53 73.97 100.574 74.0511 100.609Z" fill="#263238"/>
<path d="M84.5963 142.402C84.5963 142.402 84.5963 142.368 84.5512 142.312C84.5061 142.256 84.4572 142.165 84.397 142.064C84.2578 141.85 84.0472 141.534 83.7652 141.135C83.2011 140.345 82.3286 139.232 81.1778 137.923C78.8612 135.325 75.6156 131.778 72.0429 127.852L62.8329 117.815L60.0311 114.806L59.2789 113.99L59.0759 113.783L59.0007 113.715C59.0007 113.715 59.0195 113.745 59.0608 113.794L59.2489 114.016L60.001 114.859L62.7576 117.924L71.8963 127.972L81.0725 138.006C82.2346 139.3 83.1221 140.394 83.705 141.169C83.9946 141.545 84.2165 141.865 84.3631 142.075L84.5324 142.312C84.5512 142.344 84.5726 142.374 84.5963 142.402Z" fill="#263238"/>
<path d="M51.9868 54.4009C51.6634 54.886 44.3976 55.6946 42.6188 57.4697C40.84 59.2447 23.0629 72.8135 23.0629 72.8135L35.7329 89.8647L43.9087 88.0634L51.9868 54.4009Z" fill="#DBD9F5"/>
<path opacity="0.4" d="M25.2179 71.1587L39.4222 89.0523L35.7329 89.8647L23.078 72.7946L25.2179 71.1587Z" fill="black"/>
<path d="M48.1171 72.1513C48.1807 71.9572 48.2298 71.7585 48.2638 71.5571C48.3051 71.3653 48.354 71.1284 48.3879 70.8501C48.4217 70.5718 48.4781 70.2559 48.4969 69.9024C48.5157 69.5488 48.5533 69.1502 48.5533 68.7478C48.5533 68.3454 48.5533 67.8904 48.5195 67.424C48.4464 66.4099 48.2892 65.4035 48.0494 64.4154C47.7934 63.4322 47.455 62.4723 47.0378 61.546C46.8384 61.1248 46.6617 60.7186 46.4473 60.3576C46.233 59.9965 46.0487 59.6618 45.8569 59.3647C45.6651 59.0676 45.4808 58.8119 45.3153 58.5825C45.1786 58.3857 45.0317 58.1962 44.8753 58.0146C44.7522 57.8513 44.615 57.699 44.4654 57.5596C44.5681 57.7356 44.6851 57.9029 44.8152 58.0598C44.9317 58.2177 45.0746 58.4095 45.2251 58.6464C45.3755 58.8834 45.5673 59.1353 45.7403 59.4399C45.9133 59.7446 46.1164 60.068 46.3044 60.4365C46.4924 60.8051 46.6805 61.1887 46.8723 61.6174C47.2683 62.5401 47.5927 63.4918 47.8426 64.4643C48.0768 65.4398 48.2365 66.4318 48.3202 67.4315C48.3465 67.8941 48.3804 68.3341 48.3691 68.744C48.3578 69.154 48.3691 69.5376 48.339 69.8723C48.3089 70.207 48.2863 70.5379 48.26 70.8162C48.2337 71.0945 48.1998 71.3314 48.1698 71.5232C48.132 71.7304 48.1144 71.9407 48.1171 72.1513Z" fill="#263238"/>
<path d="M42.4308 86.1715C43.0132 85.0424 43.5367 83.8837 43.999 82.7003C44.5229 81.5439 44.9873 80.3615 45.3905 79.1577C44.8081 80.2861 44.2834 81.4434 43.8185 82.6251C43.2937 83.7819 42.8305 84.9657 42.4308 86.1715Z" fill="#263238"/>
<path d="M98.2968 73.7833C98.3268 73.7833 98.6315 73.238 99.2069 72.3918C99.9576 71.2896 100.817 70.2654 101.772 69.3343C102.731 68.4103 103.779 67.5827 104.901 66.8635C105.766 66.3144 106.333 66.0286 106.318 65.9985C106.174 66.0383 106.035 66.0951 105.905 66.1678C105.537 66.3426 105.178 66.5359 104.829 66.7469C103.672 67.4363 102.6 68.2579 101.633 69.1952C100.669 70.1352 99.8158 71.1825 99.0903 72.3166C98.8157 72.7528 98.6089 73.1139 98.481 73.3734C98.403 73.5019 98.3411 73.6396 98.2968 73.7833Z" fill="#263238"/>
<path opacity="0.4" d="M120.023 91.9966L119.146 89.8643L95.1151 96.408L96.0666 99.0819L120.023 91.9966Z" fill="black"/>
<path d="M55.868 83.5688H46.7181V87.3296L58.4253 87.2544C58.4253 87.2544 56.6164 85.0769 55.868 83.5688Z" fill="#FAFAFA"/>
<g opacity="0.2">
<path d="M88.5038 56.3563C88.1728 59.2896 87.8118 62.317 86.3602 64.8894C84.9085 67.4618 82.0691 69.4888 79.147 69.0563C77.199 68.7667 75.548 67.4655 74.2205 66.0063C72.8929 64.5472 71.7797 62.8962 70.3318 61.5611C69.4563 62.5041 68.4773 63.3456 67.4135 64.0696C66.3388 64.7976 65.0484 65.1384 63.7543 65.0361C62.4794 64.8819 61.7761 64.3742 61.3737 63.1557C62.7351 63.5769 63.4835 63.513 64.8412 63.2535C66.3402 62.9661 67.7478 62.321 68.9441 61.3731C69.7414 60.745 70.031 59.8011 71.0426 59.8688C71.9791 59.9214 72.7124 60.6623 73.3292 61.3731C74.3249 62.513 75.417 63.5649 76.5935 64.5171C77.7217 65.4084 78.8123 66.0214 80.2489 65.98C82.6145 65.9274 84.5512 64.0696 85.8562 62.0952C87.0608 60.2748 87.9507 58.2649 88.4887 56.1494" fill="black"/>
</g>
<path d="M60.8095 52.6973C60.788 52.7657 60.7742 52.8364 60.7682 52.9079C60.7682 53.047 60.7231 53.2501 60.6967 53.5133C60.6403 54.0399 60.5839 54.8033 60.5613 55.7698C60.5105 58.242 60.7465 60.7118 61.2646 63.1296V63.1898V63.2499H61.321C62.658 63.5633 64.0532 63.5257 65.3713 63.1409C66.4492 62.8528 67.4677 62.3766 68.3799 61.7343C68.9974 61.3147 69.5509 60.808 70.0234 60.23C70.1505 60.074 70.2685 59.9107 70.3769 59.7411C70.419 59.6833 70.4555 59.6216 70.486 59.5569C69.8725 60.3591 69.1363 61.0597 68.3047 61.6328C67.3973 62.2457 66.3928 62.7009 65.3337 62.9792C64.044 63.3435 62.683 63.3758 61.3774 63.0732L61.4489 63.1446V63.0845C60.9367 60.679 60.6846 58.2254 60.6967 55.766C60.6967 54.8221 60.7381 54.0587 60.7682 53.5284C60.7682 53.2839 60.7945 53.0846 60.8058 52.9229C60.8179 52.8483 60.8192 52.7723 60.8095 52.6973Z" fill="#263238"/>
<path d="M72.2348 60.1172C72.2646 60.1974 72.3051 60.2733 72.3552 60.3428C72.4811 60.5514 72.6192 60.7523 72.7688 60.9445C73.3304 61.6453 73.9493 62.2982 74.6191 62.8963C75.0366 63.2724 75.5067 63.6899 76.0144 64.1186C76.2701 64.333 76.5258 64.5586 76.8116 64.7842C77.106 65.0064 77.4165 65.2063 77.7406 65.3822C78.4366 65.7661 79.2052 66.0005 79.997 66.0704C80.8609 66.1437 81.7267 65.9522 82.4791 65.5214C83.2116 65.085 83.8682 64.5325 84.4234 63.8854C84.9497 63.2993 85.4395 62.6814 85.8901 62.0351C86.6495 60.9386 87.2912 59.765 87.8043 58.5339C88.1482 57.7061 88.4297 56.8538 88.6467 55.9841C88.7257 55.6757 88.7746 55.435 88.8047 55.2695C88.8256 55.187 88.8382 55.1026 88.8423 55.0176C88.8078 55.0959 88.7826 55.1779 88.7671 55.262C88.7219 55.4237 88.6618 55.6607 88.5753 55.9653C88.3285 56.8219 88.0283 57.6622 87.6765 58.4812C87.1496 59.6935 86.5006 60.849 85.7397 61.9298C85.2911 62.5672 84.8038 63.1763 84.2805 63.7538C83.7434 64.3839 83.1085 64.9236 82.4001 65.3521C81.6804 65.7631 80.8531 65.9466 80.0271 65.8786C79.2581 65.8124 78.5107 65.5898 77.8308 65.2243C77.5117 65.0551 77.2061 64.8615 76.9169 64.6451C76.6424 64.4345 76.3792 64.2051 76.1234 63.9945C75.612 63.5695 75.1381 63.1709 74.7169 62.7948C74.0447 62.2151 73.4162 61.5866 72.8365 60.9144C72.6372 60.6737 72.4905 60.4744 72.3928 60.339C72.3466 60.2606 72.2938 60.1864 72.2348 60.1172Z" fill="#263238"/>
<path d="M80.3354 103.328L77.4359 99.1009C77.4359 99.1009 75.4427 92.1736 75.7135 91.2033C75.9843 90.233 76.8643 86.6227 76.6574 86.5776C76.4506 86.5325 74.2806 85.7277 73.1035 88.6234C72.3702 90.4286 72.1295 92.8054 72.0505 94.3398C72.0419 94.5294 71.9923 94.7148 71.9051 94.8834C71.8179 95.0519 71.6951 95.1996 71.5453 95.3161C71.3956 95.4327 71.2223 95.5153 71.0375 95.5584C70.8526 95.6015 70.6607 95.604 70.4748 95.5658C68.4703 95.1521 65.1345 94.524 64.341 94.7158C63.1902 94.9904 62.1598 96.4571 62.062 96.9497C61.9642 97.4424 62.754 98.5518 62.754 98.5518C62.754 98.5518 61.7762 99.052 61.4753 99.8079C61.4339 99.9094 61.4001 100.011 61.37 100.109C61.2782 100.412 61.267 100.734 61.3376 101.042C61.4082 101.351 61.558 101.636 61.7724 101.869L62.0808 102.207C62.0808 102.207 60.8585 102.542 60.7081 103.241C60.6266 103.752 60.6406 104.274 60.7495 104.78L61.8965 105.964C61.5768 106.262 61.3673 106.66 61.3023 107.092C61.2421 107.739 62.9608 109.349 62.9608 109.349L70.3356 111.981L73.2615 112.734L80.3354 103.328Z" fill="#B78876"/>
<path d="M62.7314 98.5594C63.5741 98.7862 64.4276 98.9707 65.2887 99.1122C66.1347 99.319 66.9908 99.4822 67.8535 99.6011C67.6226 99.4883 67.3789 99.4036 67.1277 99.3491C66.6726 99.2213 66.0371 99.0633 65.3263 98.9204C64.6155 98.7775 63.9724 98.6722 63.4986 98.612C63.2463 98.5602 62.9883 98.5425 62.7314 98.5594Z" fill="#AA6550"/>
<path d="M62.0581 102.207C62.6849 102.501 63.3385 102.734 64.0099 102.903C64.6616 103.137 65.3341 103.308 66.0182 103.414C65.3914 103.12 64.7378 102.887 64.0664 102.718C63.4147 102.485 62.7423 102.313 62.0581 102.207Z" fill="#AA6550"/>
<path d="M61.6181 105.806C62.2787 106.202 62.972 106.54 63.6903 106.818C64.3823 107.157 65.102 107.436 65.8414 107.653C65.1808 107.257 64.4875 106.919 63.7693 106.641C63.0772 106.302 62.3575 106.023 61.6181 105.806Z" fill="#AA6550"/>
<path d="M97.3265 129.45L70.2039 111.256L77.0485 98.8453L101.802 111.575L98.9925 98.2022L115.792 93.2305L119.996 116.133C120.643 126.318 112.475 134.539 102.629 131.865C100.742 131.354 98.9506 130.539 97.3265 129.45Z" fill="#B78876"/>
<path d="M105.386 118.773C105.435 118.665 105.466 118.549 105.48 118.431C105.536 118.114 105.567 117.794 105.574 117.472C105.588 116.402 105.348 115.344 104.874 114.384C104.394 113.427 103.691 112.6 102.825 111.97C102.567 111.779 102.292 111.61 102.005 111.466C101.902 111.406 101.79 111.362 101.674 111.334C101.674 111.368 102.114 111.583 102.742 112.087C103.564 112.729 104.233 113.547 104.699 114.48C105.165 115.414 105.416 116.44 105.435 117.483C105.453 118.273 105.329 118.769 105.386 118.773Z" fill="#AA6550"/>
<path d="M35.7329 89.8644C35.5637 89.6312 16.4177 101.297 16.4177 101.297L10.2802 129.258L1.44615 132.5C1.44615 132.5 -1.31048 101.384 0.788017 96.5397C2.88652 91.6959 24.1611 74.2686 24.1611 74.2686L35.7329 89.8644Z" fill="#B78876"/>
<path d="M12.2358 99.1538C12.6621 99.7949 13.2294 100.33 13.8943 100.718C14.5247 101.162 15.2471 101.458 16.0078 101.583C15.3207 101.275 14.6504 100.931 13.9996 100.553C13.386 100.12 12.7971 99.6527 12.2358 99.1538Z" fill="#AA6550"/>
<path d="M58.76 89.9245L57.2595 116.761L26.662 114.693L27.5872 94.7157L32.0436 88.7173L58.76 89.9245Z" fill="#263238"/>
<path d="M65.7136 117.359C65.6234 117.874 63.0247 142.18 63.0247 142.18L17.4858 139.017L9.77999 137.983L13.3339 115.351L18.7757 114.046L65.7136 117.359Z" fill="#DBD9F5"/>
<path opacity="0.4" d="M18.7757 114.042L65.7136 117.359C65.6234 117.875 63.0247 142.18 63.0247 142.18L15.6129 138.882L18.7757 114.042Z" fill="black"/>
<path d="M31.2501 115.001L57.2595 116.761L58.76 89.9245L32.0436 88.7173L31.2501 115.001Z" fill="#455A64"/>
<path d="M49.061 89.4885L48.512 97.7584L47.1205 96.9612L46.3495 97.7584L45.3905 96.9612L43.9088 97.7584V89.2554L49.061 89.4885Z" fill="#263238"/>
<path d="M38.1887 115.565L39.9675 95.4229L22.5816 100.214L20.9043 114.118L38.1887 115.565Z" fill="#DBD9F5"/>
<path d="M22.5928 100.218C22.6237 100.269 22.6603 100.317 22.7019 100.361L23.0366 100.756L24.3152 102.215L28.7567 107.198L28.8244 107.273L28.8958 107.202L31.2425 104.719L37.4365 98.1757L39.2981 96.175L39.7983 95.6259C39.8602 95.5651 39.9145 95.4969 39.96 95.4229C39.8912 95.4749 39.827 95.5328 39.7682 95.5959L39.2417 96.1224L37.3387 98.078L31.1034 104.584L28.7417 107.07H28.8808L24.3679 102.132L23.0479 100.71L22.6906 100.334C22.662 100.292 22.6293 100.253 22.5928 100.218Z" fill="#263238"/>
<path d="M32.3295 103.948C32.2806 103.975 33.5216 106.352 35.0974 109.259C36.6731 112.166 37.9894 114.501 38.0383 114.475C38.0872 114.448 36.8461 112.072 35.2704 109.165C33.6946 106.258 32.3708 103.922 32.3295 103.948Z" fill="#263238"/>
<path d="M21.3105 114.118C21.3556 114.144 22.5591 112.219 23.9994 109.819C25.4398 107.42 26.5718 105.445 26.5229 105.415C26.474 105.385 25.2743 107.315 23.8339 109.718C22.3936 112.121 21.2616 114.091 21.3105 114.118Z" fill="#263238"/>
<path d="M28.8507 114.78L29.9865 101.952L18.9148 105.005L17.8468 113.858L28.8507 114.78Z" fill="#DBD9F5"/>
<path opacity="0.4" d="M28.8507 114.78L29.9865 101.952L18.9148 105.005L17.8468 113.858L28.8507 114.78Z" fill="white"/>
<path d="M18.9148 105.005C18.9938 105.131 19.0859 105.248 19.1893 105.355C19.3962 105.6 19.6669 105.912 19.9941 106.292L22.8147 109.473L22.8824 109.552L22.9538 109.477L24.4581 107.897C26.0038 106.277 27.3953 104.799 28.3956 103.723L29.569 102.441C29.7208 102.29 29.8592 102.126 29.9827 101.952C29.8156 102.084 29.6597 102.23 29.5163 102.388L28.2941 103.625C27.2674 104.678 25.8609 106.141 24.3152 107.762L22.8109 109.345H22.9689L20.0994 106.209L19.2495 105.31C19.1478 105.198 19.0357 105.096 18.9148 105.005Z" fill="#263238"/>
<path d="M25.1201 107.382C25.0749 107.408 25.8496 108.928 26.8538 110.767C27.43 111.901 28.0652 113.004 28.7567 114.072C28.2394 112.915 27.662 111.785 27.0268 110.688C26.4502 109.553 25.8137 108.449 25.1201 107.382Z" fill="#263238"/>
<path d="M18.1025 113.858C18.7382 112.988 19.321 112.08 19.8475 111.139C20.4316 110.232 20.9579 109.289 21.4232 108.315C20.2092 110.096 19.1004 111.947 18.1025 113.858Z" fill="#263238"/>
<path d="M21.7955 104.464V105.494L20.1784 105.682L20.0919 104.896L21.7955 104.464Z" fill="white"/>
<path d="M27.5044 99.2324V100.737L24.4507 101.241L24.2814 100.09L27.5044 99.2324Z" fill="white"/>
<path d="M39.4222 123.064L39.5727 115.565L45.6538 115.975L45.0032 123.595L39.4222 123.064Z" fill="#DBD9F5"/>
<path d="M19.5914 127.004L29.8011 127.973L28.9443 137.004L18.7346 136.035L19.5914 127.004Z" fill="#FAFAFA"/>
<path d="M18.7494 136.047C18.7619 135.99 18.7707 135.932 18.7757 135.874C18.7757 135.75 18.8096 135.588 18.8322 135.385C18.8773 134.949 18.945 134.328 19.0277 133.55C19.1894 131.962 19.4038 129.721 19.6896 127.025L19.5994 127.1L29.8023 128.081C29.8248 128.104 29.6368 127.882 29.7158 127.976V128.044V128.123V128.273L29.6857 128.582L29.6293 129.191C29.5879 129.593 29.5503 129.992 29.5127 130.39C29.4412 131.184 29.366 131.959 29.2946 132.718C29.1554 134.223 29.02 135.671 28.8997 136.998L28.9937 136.923L21.6264 136.269L19.5354 136.092L18.9751 136.05C18.9087 136.045 18.8421 136.045 18.7757 136.05C18.8338 136.064 18.893 136.073 18.9525 136.077L19.4941 136.141L21.5625 136.359L28.9749 137.111H29.0614V137.024C29.193 135.693 29.3322 134.257 29.4788 132.745C29.549 131.993 29.623 131.217 29.7007 130.417C29.7383 130.018 29.7759 129.62 29.8136 129.213C29.8324 129.014 29.8511 128.811 29.8737 128.608L29.9 128.3V128.149V128.07V128.002C29.979 128.096 29.7947 127.871 29.8098 127.893L19.6031 126.942H19.5204V127.025C19.2797 129.744 19.0804 132.008 18.9375 133.61C18.8735 134.381 18.8246 134.994 18.787 135.43C18.787 135.629 18.7607 135.787 18.7532 135.908C18.7486 135.954 18.7473 136 18.7494 136.047Z" fill="#263238"/>
<path d="M20.4042 129.179C20.4042 129.236 22.183 129.465 24.3906 129.698C25.7193 129.873 27.0561 129.981 28.3958 130.022C28.3958 129.969 26.6169 129.736 24.4094 129.503C22.2018 129.27 20.4079 129.127 20.4042 129.179Z" fill="#263238"/>
<path d="M20.4643 130.714C20.819 130.842 21.1857 130.934 21.5587 130.988C22.2431 131.124 23.1946 131.282 24.2514 131.406C25.3082 131.53 26.2747 131.598 26.9704 131.62C27.3457 131.654 27.7233 131.654 28.0986 131.62C27.7267 131.547 27.3494 131.504 26.9704 131.492C26.2784 131.428 25.3232 131.342 24.2702 131.218C23.2172 131.094 22.2657 130.958 21.5775 130.842C21.2101 130.771 20.838 130.729 20.4643 130.714Z" fill="#263238"/>
<path d="M20.0318 134.068C20.3882 134.195 20.7559 134.287 21.13 134.343C21.8144 134.478 22.7659 134.636 23.8227 134.76C24.8794 134.884 25.8422 134.952 26.5417 134.975C26.9169 135.011 27.2947 135.011 27.6699 134.975C27.298 134.901 26.9206 134.858 26.5417 134.847C25.8497 134.787 24.8907 134.696 23.8377 134.572C22.7847 134.448 21.8332 134.313 21.145 134.196C20.7777 134.126 20.4056 134.083 20.0318 134.068Z" fill="#263238"/>
<path d="M20.547 132.35C21.7745 132.627 23.0161 132.838 24.2663 132.981C25.5114 133.193 26.7667 133.338 28.0271 133.418C26.7987 133.145 25.5574 132.934 24.3077 132.786C23.0624 132.577 21.8071 132.431 20.547 132.35Z" fill="#263238"/>
<path d="M11.5325 146.336C11.5325 146.336 3.12718 140.774 2.48033 137.931C1.83348 135.088 1.44612 132.5 1.44612 132.5L10.4268 128.781L9.5355 132.015C9.5355 132.015 12.7547 133.929 13.0856 136.25C13.3038 137.795 17.4669 140.443 17.4669 140.443C17.8132 140.024 18.2539 139.694 18.7527 139.479C19.2516 139.264 19.7943 139.17 20.3364 139.206L23.8339 139.454L21.4684 144.783L11.5325 146.336Z" fill="#B78876"/>
<path d="M8.24938 138.713C8.37151 138.788 8.50484 138.842 8.64426 138.875C8.90751 138.961 9.29863 139.048 9.77249 139.198C10.3074 139.388 10.8022 139.677 11.2317 140.048C11.7728 140.509 12.3784 140.889 13.0293 141.176C14.2332 141.689 15.5702 141.801 16.8427 141.496C17.0662 141.453 17.281 141.373 17.4783 141.259C17.5591 141.213 17.6246 141.144 17.6661 141.061C17.7076 140.978 17.7234 140.885 17.7114 140.793C17.7051 140.735 17.6846 140.681 17.6517 140.633C17.6189 140.586 17.5748 140.548 17.5234 140.522C17.4482 140.495 17.4068 140.522 17.4068 140.522C17.4068 140.522 17.4482 140.522 17.5046 140.563C17.544 140.592 17.5763 140.629 17.5991 140.672C17.6219 140.715 17.6346 140.763 17.6362 140.811C17.6433 140.889 17.6261 140.967 17.587 141.034C17.5479 141.102 17.4889 141.155 17.4181 141.187C17.2259 141.282 17.0205 141.347 16.8088 141.379C15.5645 141.633 14.2725 141.501 13.1045 141.003C12.4683 140.72 11.8757 140.348 11.3445 139.898C10.894 139.524 10.3756 139.24 9.81761 139.063C9.33624 138.927 8.94512 138.863 8.68939 138.796C8.54514 138.756 8.398 138.729 8.24938 138.713Z" fill="#AA6550"/>
<path d="M14.071 143.026C14.071 143.057 14.5035 142.808 15.218 142.511C16.1496 142.13 17.1312 141.886 18.1326 141.785C18.4259 141.755 18.7155 141.748 18.9938 141.74H19.0465L19.0765 141.695C19.5119 141.014 20.0368 140.394 20.6373 139.852C21.0923 139.442 21.3894 139.232 21.3894 139.209C21.3894 139.187 21.2991 139.239 21.1562 139.33C20.9534 139.461 20.7575 139.603 20.5696 139.755C19.9284 140.277 19.3738 140.898 18.9261 141.594L19.0051 141.549C18.7193 141.549 18.4259 141.548 18.1251 141.594C17.1037 141.692 16.106 141.96 15.1729 142.387C14.8919 142.515 14.6193 142.661 14.3568 142.823C14.2515 142.876 14.1551 142.944 14.071 143.026Z" fill="#AA6550"/>
<path d="M11.7995 141.5C11.7995 141.552 12.3673 141.767 13.0292 142.143C13.6911 142.519 14.1763 142.914 14.2139 142.868C13.5931 142.145 12.7392 141.661 11.7995 141.5Z" fill="#AA6550"/>
<path d="M7.24528 131.496C7.24528 131.556 7.83196 131.496 8.50137 131.665C9.17078 131.834 9.6296 132.18 9.68225 132.131C9.37127 131.815 8.98051 131.589 8.55144 131.477C8.12238 131.366 7.67102 131.372 7.24528 131.496Z" fill="#AA6550"/>
</svg>
