<svg width="20" height="20" viewBox="0 0 20 20" fill="none" xmlns="http://www.w3.org/2000/svg">
<path d="M18.056 9.99988H16.056C15.7907 9.99988 15.5364 10.1052 15.3489 10.2928C15.1613 10.4803 15.056 10.7347 15.056 10.9999C15.056 11.2651 15.1613 11.5195 15.3489 11.707C15.5364 11.8945 15.7907 11.9999 16.056 11.9999V13.9999H14.87C14.9881 13.6795 15.0507 13.3413 15.055 12.9999C15.0549 12.3395 14.837 11.6976 14.435 11.1737C14.033 10.6498 13.4693 10.2732 12.8314 10.1022C12.1935 9.93132 11.5171 9.97565 10.907 10.2283C10.2969 10.481 9.78718 10.928 9.45696 11.4999C9.39026 11.6137 9.34673 11.7395 9.32886 11.8702C9.31099 12.0008 9.31915 12.1337 9.35286 12.2612C9.38657 12.3887 9.44516 12.5083 9.52527 12.6131C9.60538 12.7178 9.70542 12.8057 9.81963 12.8716C9.93384 12.9376 10.06 12.9803 10.1907 12.9973C10.3215 13.0143 10.4544 13.0052 10.5817 12.9707C10.7089 12.9361 10.8281 12.8768 10.9323 12.7959C11.0366 12.7151 11.1238 12.6145 11.189 12.4999C11.2767 12.3479 11.403 12.2216 11.555 12.1339C11.707 12.0461 11.8794 11.9999 12.055 11.9999C12.3202 11.9999 12.5745 12.1052 12.7621 12.2928C12.9496 12.4803 13.055 12.7347 13.055 12.9999C13.055 13.2651 12.9496 13.5195 12.7621 13.707C12.5745 13.8945 12.3202 13.9999 12.055 13.9999C11.7897 13.9999 11.5354 14.1052 11.3479 14.2928C11.1603 14.4803 11.055 14.7347 11.055 14.9999C11.055 15.2651 11.1603 15.5195 11.3479 15.707C11.5354 15.8945 11.7897 15.9999 12.055 15.9999C12.3202 15.9999 12.5745 16.1052 12.7621 16.2928C12.9496 16.4803 13.055 16.7347 13.055 16.9999C13.055 17.2651 12.9496 17.5195 12.7621 17.707C12.5745 17.8945 12.3202 17.9999 12.055 17.9999C11.8794 17.9999 11.707 17.9537 11.555 17.8659C11.403 17.7781 11.2767 17.6519 11.189 17.4999C11.1238 17.3852 11.0366 17.2846 10.9323 17.2038C10.8281 17.123 10.7089 17.0636 10.5817 17.0291C10.4544 16.9945 10.3215 16.9855 10.1907 17.0025C10.06 17.0195 9.93384 17.0622 9.81963 17.1281C9.70542 17.1941 9.60538 17.2819 9.52527 17.3867C9.44516 17.4915 9.38657 17.611 9.35286 17.7385C9.31915 17.866 9.31099 17.9989 9.32886 18.1296C9.34673 18.2603 9.39026 18.3861 9.45696 18.4999C9.78718 19.0718 10.2969 19.5187 10.907 19.7714C11.5171 20.0241 12.1935 20.0684 12.8314 19.8975C13.4693 19.7266 14.033 19.35 14.435 18.8261C14.837 18.3022 15.0549 17.6603 15.055 16.9999C15.0507 16.6585 14.9881 16.3203 14.87 15.9999H16.055V18.9999C16.055 19.2651 16.1603 19.5195 16.3479 19.707C16.5354 19.8945 16.7897 19.9999 17.055 19.9999C17.3202 19.9999 17.5745 19.8945 17.7621 19.707C17.9496 19.5195 18.055 19.2651 18.055 18.9999V11.9999C18.3202 11.9999 18.5745 11.8945 18.7621 11.707C18.9496 11.5195 19.055 11.2651 19.055 10.9999C19.055 10.7347 18.9496 10.4803 18.7621 10.2928C18.5745 10.1052 18.3212 9.99988 18.056 9.99988ZM6.08496 9.24288C6.1161 9.37108 6.1723 9.49184 6.25032 9.59822C6.32834 9.7046 6.42664 9.79449 6.53955 9.86271C6.65247 9.93093 6.77776 9.97614 6.90822 9.99573C7.03868 10.0153 7.17173 10.0089 7.2997 9.97684C7.42767 9.94478 7.54803 9.88772 7.65385 9.80894C7.75967 9.73016 7.84885 9.63122 7.91627 9.51782C7.98368 9.40443 8.02799 9.27881 8.04665 9.14821C8.0653 9.01762 8.05793 8.88462 8.02496 8.75688L6.26796 1.72688C6.14505 1.23307 5.86047 0.794562 5.45953 0.481182C5.05859 0.167801 4.56434 -0.00244141 4.05546 -0.00244141C3.54658 -0.00244141 3.05232 0.167801 2.65138 0.481182C2.25044 0.794562 1.96587 1.23307 1.84296 1.72688L0.0849582 8.75688C0.051987 8.88462 0.0446163 9.01762 0.0632706 9.14821C0.081925 9.27881 0.126236 9.40443 0.19365 9.51782C0.261064 9.63122 0.35025 9.73016 0.456069 9.80894C0.561888 9.88772 0.682248 9.94478 0.810216 9.97684C0.938185 10.0089 1.07123 10.0153 1.20169 9.99573C1.33215 9.97614 1.45745 9.93093 1.57036 9.86271C1.68328 9.79449 1.78157 9.7046 1.85959 9.59822C1.93761 9.49184 1.99381 9.37108 2.02496 9.24288L2.58496 6.99988H5.52496L6.08496 9.24288ZM3.08596 4.99988L3.78296 2.21288C3.80398 2.15749 3.84135 2.10981 3.89011 2.07616C3.93887 2.04251 3.99671 2.02449 4.05596 2.02449C4.1152 2.02449 4.17304 2.04251 4.2218 2.07616C4.27056 2.10981 4.30794 2.15749 4.32896 2.21288L5.02596 4.99988H3.08596ZM11.056 4.99988H12.056C12.3212 4.99988 12.5755 5.10524 12.7631 5.29278C12.9506 5.48031 13.056 5.73467 13.056 5.99988V6.99988C13.056 7.2651 13.1613 7.51945 13.3489 7.70699C13.5364 7.89453 13.7907 7.99988 14.056 7.99988C14.3212 7.99988 14.5755 7.89453 14.7631 7.70699C14.9506 7.51945 15.056 7.2651 15.056 6.99988V5.99988C15.0552 5.20448 14.7388 4.44188 14.1764 3.87944C13.614 3.317 12.8514 3.00068 12.056 2.99988H11.056C10.7907 2.99988 10.5364 3.10524 10.3489 3.29278C10.1613 3.48031 10.056 3.73467 10.056 3.99988C10.056 4.2651 10.1613 4.51945 10.3489 4.70699C10.5364 4.89453 10.7907 4.99988 11.056 4.99988ZM7.05596 13.9999H6.05596C5.79074 13.9999 5.53639 13.8945 5.34885 13.707C5.16131 13.5195 5.05596 13.2651 5.05596 12.9999V11.9999C5.05596 11.7347 4.9506 11.4803 4.76306 11.2928C4.57553 11.1052 4.32117 10.9999 4.05596 10.9999C3.79074 10.9999 3.53639 11.1052 3.34885 11.2928C3.16131 11.4803 3.05596 11.7347 3.05596 11.9999V12.9999C3.05675 13.7953 3.37308 14.5579 3.93551 15.1203C4.49795 15.6828 5.26055 15.9991 6.05596 15.9999H7.05596C7.32117 15.9999 7.57553 15.8945 7.76306 15.707C7.9506 15.5195 8.05596 15.2651 8.05596 14.9999C8.05596 14.7347 7.9506 14.4803 7.76306 14.2928C7.57553 14.1052 7.32117 13.9999 7.05596 13.9999Z" fill="white"/>
</svg>
